<?xml version="1.0" encoding="UTF-8"?>
<svg version="1.1" viewBox="0 0 400 437.76" xmlns="http://www.w3.org/2000/svg">
<g fill-rule="evenodd">
<path d="m57.979 47.2c-0.027 1.377-0.116 1.612-0.379 1-0.783-1.823-0.393 0.989 0.45 3.242 0.837 2.237 2.617 4.512 5.734 7.327 3.309 2.989 35.262 35.111 36.216 36.407 0.55 0.748 1.36 1.755 1.8 2.238 0.44 0.484 0.98 1.159 1.2 1.5 1.152 1.787 3.577 5.312 3.774 5.486 0.124 0.11 0.577 0.83 1.006 1.6s0.934 1.58 1.121 1.8c0.411 0.481 1.541 2.546 2.736 5 0.482 0.99 1.009 1.89 1.171 2s0.619 1.235 1.016 2.5 0.843 2.3 0.99 2.3 0.584 1.17 0.971 2.6 0.836 2.6 0.997 2.6 0.62 1.575 1.02 3.5 0.849 3.59 0.999 3.7c0.307 0.226 0.951 4.061 1.893 11.281 0.789 6.045 1.127 20.933 0.539 23.719-0.233 1.1-0.794 4.695-1.248 7.989-0.453 3.293-0.961 6.083-1.128 6.2-0.167 0.116-0.637 1.696-1.045 3.511-0.409 1.815-0.856 3.3-0.994 3.3s-0.596 1.26-1.018 2.8-0.881 2.8-1.02 2.8-0.58 1.08-0.98 2.4-0.859 2.4-1.02 2.4-0.413 0.495-0.56 1.1c-0.298 1.235-5.03 10.981-5.492 11.314-0.163 0.118-0.677 1.018-1.141 2-0.805 1.704-2.279 4.299-3.172 5.586-1.615 2.325-3.615 5.635-3.615 5.983 0 0.229-0.186 0.417-0.413 0.417-0.226 0-0.533 0.315-0.68 0.7s-0.864 1.51-1.592 2.5c-0.729 0.99-1.458 1.98-1.62 2.2s-0.925 1.265-1.695 2.322c-0.77 1.056-1.94 2.601-2.6 3.431-0.66 0.831-1.65 2.114-2.2 2.851s-1.36 1.768-1.8 2.292-1.25 1.504-1.8 2.179c-0.55 0.674-1.36 1.62-1.8 2.102s-1.454 1.674-2.252 2.649c-0.799 0.976-1.969 2.325-2.6 2.999-0.632 0.674-2.588 2.818-4.348 4.765-7.559 8.363-25.428 25.62-34.179 33.01-1.172 0.99-2.512 2.176-2.976 2.636-0.465 0.46-2.735 2.402-5.045 4.316-2.31 1.915-4.83 4.02-5.6 4.679s-1.637 1.39-1.926 1.624c-2.624 2.122 5.536-0.857 9.542-3.484 1.861-1.22 5.076-3.153 7.143-4.295 12.807-7.073 14.226-7.803 15.729-8.093 0.469-0.09 0.956-0.303 1.083-0.474 0.247-0.334 1.144-0.863 3.758-2.219 0.919-0.476 1.941-1.189 2.271-1.584 0.929-1.11 11.606-6.358 12.415-6.101 0.385 0.122 0.945-0.022 1.243-0.32 0.298-0.299 1.397-0.869 2.442-1.268s1.9-0.881 1.9-1.071 0.226-0.346 0.501-0.346c0.276 0 1.761-0.607 3.3-1.349 1.54-0.742 3.204-1.474 3.699-1.627s0.9-0.446 0.9-0.651 0.188-0.373 0.418-0.373c0.231 0 1.716-0.605 3.3-1.345 1.585-0.74 3.287-1.472 3.782-1.627s0.9-0.421 0.9-0.592c0-0.17 0.765-0.533 1.7-0.807 0.935-0.273 2.33-0.864 3.1-1.312s2.255-1.069 3.3-1.381 1.9-0.701 1.9-0.864c0-0.164 0.827-0.541 1.837-0.84 1.01-0.298 2.257-0.962 2.771-1.476 1.054-1.054 10.938-5.392 12.062-5.293 1.461 0.128 2.081-0.077 2.304-0.763 0.286-0.877 5.472-3.025 7.578-3.139 0.854-0.045 1.664-0.243 1.8-0.439 0.137-0.195 1.058-0.607 2.048-0.914s2.7-0.953 3.8-1.436 2.45-1.008 3-1.167c0.55-0.158 1.369-0.52 1.82-0.804 0.451-0.283 1.936-0.828 3.3-1.211 1.364-0.382 2.48-0.812 2.48-0.955s0.855-0.502 1.9-0.798 2.269-0.766 2.72-1.044c0.451-0.279 1.936-0.82 3.3-1.203 1.364-0.382 2.48-0.812 2.48-0.955s0.855-0.505 1.9-0.803c2.367-0.677 5.185-1.911 5.365-2.351 0.229-0.561 8.403-3.313 9.143-3.078 0.403 0.128 0.79-0.021 0.917-0.352 0.256-0.666 5.59-2.443 8.408-2.8 1.063-0.134 2.503-0.506 3.2-0.826 0.697-0.319 2.347-0.882 3.667-1.251s2.58-0.802 2.8-0.963 1.705-0.624 3.3-1.029 2.9-0.853 2.9-0.995c0-0.143 1.035-0.487 2.3-0.764s2.84-0.747 3.5-1.043 2.37-0.835 3.799-1.196 2.689-0.783 2.8-0.937 1.641-0.61 3.401-1.013c1.777-0.407 3.512-1.06 3.902-1.468 0.386-0.405 1.466-0.933 2.4-1.173s2.781-0.788 4.105-1.217c1.324-0.428 3.55-0.847 4.947-0.929 1.396-0.083 2.653-0.311 2.792-0.509 0.14-0.197 1.694-0.705 3.454-1.128s3.29-0.888 3.4-1.033 1.64-0.578 3.4-0.964c1.76-0.385 3.38-0.839 3.6-1.008s1.84-0.637 3.6-1.04 3.29-0.843 3.4-0.978c0.11-0.136 1.73-0.569 3.6-0.964 1.87-0.394 3.596-0.874 3.836-1.066 0.239-0.191 1.859-0.641 3.6-1 1.74-0.358 3.254-0.776 3.364-0.927 0.11-0.152 2.18-0.691 4.6-1.197 2.42-0.507 4.58-1.051 4.8-1.21 0.22-0.158 1.93-0.623 3.8-1.033 1.87-0.409 3.49-0.861 3.6-1.005 0.11-0.143 1.91-0.587 4-0.985s3.89-0.848 4-1 1.91-0.602 4-1 3.89-0.848 4-1 1.91-0.599 4-0.994c2.09-0.394 3.98-0.847 4.2-1.006s2.11-0.612 4.2-1.006c2.09-0.395 3.89-0.837 4-0.981 0.11-0.145 2.09-0.601 4.4-1.013s4.29-0.871 4.4-1.018c0.11-0.148 2.54-0.678 5.4-1.177s5.38-1.036 5.6-1.192c0.22-0.157 2.38-0.613 4.8-1.014s4.49-0.846 4.6-0.99 2.405-0.596 5.1-1.004c2.695-0.407 4.9-0.856 4.9-0.996s2.43-0.59 5.4-1.002c2.97-0.411 5.4-0.867 5.4-1.012 0-0.146 2.565-0.588 5.7-0.983 3.135-0.394 5.88-0.85 6.1-1.012 0.22-0.163 1.57-0.423 3-0.578 4.739-0.516 6.159-1.346 4.28-2.502-0.466-0.287-1.028-1.135-3.625-5.475-0.41-0.685-0.864-1.335-1.009-1.445s-1.059-1.415-2.031-2.9-1.884-2.7-2.027-2.7-0.452-0.405-0.688-0.9-0.85-1.421-1.364-2.057c-0.515-0.637-1.531-1.897-2.259-2.8-4.419-5.486-7.095-8.451-12.122-13.433-3.438-3.407-5.225-5.053-9.125-8.41-0.639-0.55-1.582-1.364-2.096-1.808s-1.802-1.434-2.862-2.2c-1.061-0.766-2.392-1.797-2.958-2.292-0.567-0.495-1.151-0.9-1.297-0.9s-0.615-0.315-1.042-0.7c-0.426-0.385-1.945-1.461-3.375-2.392-1.43-0.93-2.78-1.839-3-2.02-0.22-0.18-1.027-0.679-1.793-1.108s-1.605-0.977-1.866-1.217c-0.26-0.241-1.028-0.668-1.707-0.949s-1.234-0.654-1.234-0.829c0-0.176-0.81-0.628-1.8-1.006s-1.8-0.825-1.8-0.994c0-0.168-0.809-0.639-1.799-1.045-0.989-0.407-1.799-0.853-1.8-0.991 0-0.138-1.081-0.655-2.401-1.149s-2.4-1.02-2.4-1.17c0-0.149-0.9-0.596-2-0.991-1.1-0.396-2-0.881-2-1.079s-0.188-0.36-0.417-0.36c-0.378 0-1.679-0.569-7.798-3.408-1.108-0.514-2.773-1.172-3.7-1.461s-1.685-0.655-1.685-0.813-0.765-0.491-1.7-0.741-2.65-0.887-3.812-1.415c-1.161-0.529-2.296-0.962-2.522-0.962-0.225 0-1.165-0.341-2.088-0.757-0.923-0.417-2.848-1.079-4.278-1.471-1.43-0.393-2.69-0.833-2.8-0.979s-1.46-0.598-3-1.005c-1.54-0.406-2.89-0.855-3-0.997s-1.55-0.597-3.2-1.013c-1.65-0.415-3.09-0.872-3.2-1.015-0.11-0.144-1.545-0.565-3.189-0.937s-3.174-0.828-3.4-1.013-1.941-0.659-3.811-1.053-3.49-0.832-3.6-0.974c-0.11-0.141-1.82-0.585-3.8-0.986s-3.78-0.862-4-1.025-2.02-0.589-4-0.947-3.96-0.82-4.4-1.027c-0.859-0.404-5.715-1.418-15-3.131-3.19-0.588-5.98-1.181-6.2-1.316s-2.83-0.577-5.8-0.983-5.49-0.853-5.6-0.993-2.72-0.575-5.8-0.967-5.78-0.848-6-1.013-3.1-0.599-6.4-0.965c-11.179-1.24-15.859-1.877-16.931-2.306-0.588-0.234-1.429-0.574-1.869-0.755s-3.41-0.694-6.6-1.14c-5.45-0.763-13.561-2.033-21.8-3.412-1.98-0.332-4.522-0.607-5.65-0.611-2.394-0.01-11.765-1.535-12.35-2.01-0.22-0.178-1.3-0.443-2.4-0.589s-2.434-0.478-2.965-0.737c-0.68-0.333-1.009-0.345-1.112-0.04-0.225 0.671-13.04-1.385-14.923-2.394-0.55-0.295-2.145-0.66-3.545-0.812-1.4-0.153-2.84-0.434-3.2-0.626s-2.725-0.656-5.255-1.031c-2.53-0.376-4.78-0.812-5-0.971-0.22-0.158-2.11-0.6-4.2-0.982-2.09-0.381-4.34-0.923-5-1.203-0.66-0.281-2.37-0.73-3.8-1-1.43-0.269-2.78-0.634-3-0.811-0.585-0.47-4.649-1.62-4.987-1.411-0.377 0.233-3.839-1.089-5.841-2.23-2.187-1.245-3.673-2.658-5.012-4.762l-1.145-1.8-0.036 1.8m24.921 17.851c0.825 0.138 1.5 0.381 1.5 0.539 0 0.159 1.935 0.708 4.3 1.222 2.365 0.513 4.39 1.048 4.5 1.187 0.11 0.14 1.82 0.587 3.8 0.994s3.87 0.871 4.2 1.03c0.33 0.16 1.095 0.486 1.7 0.725 0.694 0.274 1.1 0.733 1.1 1.243 0 0.445 0.145 0.809 0.323 0.809 0.177 0 0.652 1.305 1.053 2.9 0.402 1.595 0.968 3.44 1.257 4.1s0.821 2.37 1.182 3.8 0.809 2.785 0.996 3.011c0.186 0.226 0.634 1.709 0.995 3.295 0.361 1.587 0.796 2.972 0.967 3.077 0.171 0.106 0.648 1.728 1.059 3.605 0.412 1.876 0.888 3.412 1.058 3.412 0.171 0 0.31 0.36 0.31 0.8 0 1.147-0.625 0.986-1.162-0.3-0.253-0.605-1.094-2-1.87-3.1-0.775-1.1-1.778-2.585-2.228-3.3-0.451-0.715-0.981-1.3-1.18-1.3-0.198 0-0.36-0.204-0.36-0.454 0-1.999-14.517-17.477-23.397-24.946-0.785-0.66-1.916-1.638-2.514-2.172l-1.087-0.973 0.999 0.273c0.55 0.15 1.674 0.385 2.499 0.523m31.9 8.025c2.31 0.382 4.29 0.807 4.4 0.946 0.11 0.138 2.27 0.576 4.8 0.971 2.53 0.396 4.78 0.854 5 1.018s2.65 0.622 5.4 1.018c2.75 0.397 5.09 0.845 5.2 0.997s2.54 0.595 5.4 0.985 5.38 0.844 5.6 1.01 2.138 0.528 4.263 0.805c4.282 0.557 4.62 0.972 1.813 2.218-0.922 0.41-2.422 1.243-3.334 1.851s-1.857 1.105-2.1 1.105-0.442 0.168-0.442 0.373-0.32 0.475-0.712 0.599c-0.651 0.207-4.539 2.554-5.488 3.314-0.22 0.176-1.615 1.118-3.1 2.093s-2.7 1.88-2.7 2.011-0.565 0.571-1.255 0.979c-0.691 0.408-1.579 1.032-1.975 1.386-0.396 0.355-1.316 1.124-2.045 1.709-4.209 3.38-7.526 6.324-9.616 8.536-1.307 1.383-1.659 1.123-2.084-1.535-0.143-0.894-0.402-1.814-0.576-2.045s-0.64-1.68-1.034-3.22c-0.395-1.54-0.948-3.34-1.23-4s-0.888-2.325-1.348-3.7c-1.859-5.553-2.57-7.509-2.801-7.7-0.133-0.11-0.586-1.19-1.007-2.4-0.42-1.21-0.988-2.56-1.262-3s-0.722-1.565-0.996-2.5-0.632-1.7-0.795-1.7c-0.24 0-1.176-2.117-1.176-2.66 0-0.261 0.988-0.159 5.2 0.536m52.184 13.555c0.431 1.743 0.904 3.259 1.051 3.369 0.146 0.11 0.553 2 0.904 4.2 0.35 2.2 0.834 5.17 1.076 6.6 1.072 6.36 1.569 18.69 0.937 23.294-0.237 1.735-1.295 2.276-2.152 1.102-0.11-0.151-1.537-0.599-3.171-0.995-1.634-0.397-3.408-0.949-3.944-1.227-0.535-0.277-2.123-0.733-3.529-1.013-1.406-0.279-2.556-0.637-2.556-0.794 0-0.158-1.384-0.595-3.076-0.971-1.692-0.377-3.357-0.842-3.7-1.035s-2.064-0.733-3.824-1.201c-8.423-2.238-9.627-2.577-10-2.814-0.22-0.14-1.435-0.484-2.7-0.764-2.981-0.66-3.048-0.493 2.276-5.703 6.261-6.127 9.567-9.029 15.68-13.765 0.629-0.487 3.065-2.422 5.414-4.3 2.348-1.878 4.457-3.414 4.686-3.414 0.228 0 0.609-0.36 0.844-0.8s0.647-0.807 0.914-0.816 1.111-0.551 1.875-1.204c1.865-1.593 2.085-1.428 2.995 2.251m9.816-2.235c0.11 0.154 2.72 0.604 5.8 0.998 3.08 0.395 5.69 0.844 5.8 0.998 0.11 0.155 2.63 0.608 5.6 1.008s5.49 0.847 5.6 0.992c0.11 0.146 2.54 0.597 5.4 1.002s5.29 0.856 5.4 1.002 2.27 0.59 4.8 0.985c2.53 0.396 4.78 0.852 5 1.015s2.515 0.632 5.1 1.043 4.7 0.885 4.7 1.054 0.439 0.307 0.976 0.307 1.088 0.18 1.224 0.4-0.021 0.4-0.348 0.4-0.833 0.23-1.123 0.512c-0.291 0.282-1.318 0.768-2.282 1.082-0.964 0.313-1.959 0.775-2.211 1.027s-1.173 0.694-2.047 0.981c-0.874 0.288-2.789 1.125-4.257 1.861-1.467 0.735-2.862 1.337-3.1 1.337-0.237 0-0.432 0.162-0.432 0.36s-0.9 0.683-2 1.079c-1.1 0.395-2 0.845-2 1 0 0.154-0.9 0.604-2 1-1.1 0.395-2 0.839-2 0.986 0 0.146-0.81 0.576-1.8 0.954s-1.8 0.828-1.8 1-0.81 0.622-1.8 1-1.8 0.837-1.8 1.021-0.81 0.643-1.8 1.021-1.8 0.838-1.8 1.022-0.9 0.722-2 1.195-2 1.018-2 1.211-0.174 0.351-0.387 0.351c-0.318 0-3.381 1.841-6.013 3.614-0.33 0.222-1.68 1.118-3 1.99s-2.591 1.744-2.825 1.937c-2.061 1.7-2.03 1.78-2.317-5.845-0.147-3.885-0.445-7.243-0.662-7.46-0.218-0.218-0.404-1.125-0.413-2.016-0.029-2.711-2.55-14.36-3.553-16.42-0.214-0.44-0.654-1.61-0.976-2.6-0.323-0.99-0.871-2.34-1.218-3-1.096-2.084-0.918-2.271 1.864-1.962 1.375 0.152 2.59 0.403 2.7 0.558m63.761 15.704c-0.147 1.155-0.396 2.28-0.552 2.5-0.157 0.22-0.604 1.93-0.994 3.8s-0.85 3.58-1.023 3.8-0.528 1.21-0.789 2.2-0.715 2.34-1.009 3c-0.793 1.78-2.556 6.097-3.513 8.6-0.463 1.21-0.957 2.29-1.098 2.4s-0.579 1.055-0.974 2.1-0.838 1.9-0.984 1.9c-0.147 0-0.591 0.9-0.986 2-0.396 1.1-0.842 2-0.991 2-0.15 0-0.621 0.9-1.048 2s-0.889 2-1.027 2-0.591 0.765-1.005 1.7c-0.415 0.935-0.982 1.938-1.261 2.229-0.279 0.29-0.507 0.697-0.507 0.904 0 0.63-2.572 4.353-3 4.342-0.22-5e-3 -1.12-0.449-2-0.986-0.88-0.536-2.455-1.372-3.5-1.857s-1.9-1.004-1.9-1.153c0-0.148-0.855-0.593-1.9-0.988s-1.99-0.845-2.1-1.001c-0.217-0.306-6.99-3.59-7.405-3.59-0.139 0-0.485-0.233-0.771-0.519-0.285-0.285-1.307-0.772-2.271-1.083-0.964-0.31-1.843-0.686-1.953-0.834s-1.096-0.573-2.19-0.943c-1.095-0.37-2.177-0.828-2.405-1.017s-1.448-0.73-2.71-1.203c-2.027-0.758-3.025-1.601-1.895-1.601 0.22 0 0.727-0.315 1.126-0.7 0.4-0.385 1.345-1.049 2.1-1.475 0.756-0.427 2.569-1.642 4.03-2.7 1.461-1.059 2.796-1.925 2.966-1.925 0.171 0 0.596-0.274 0.944-0.61 0.795-0.764 3.251-2.374 4.945-3.24 0.709-0.362 1.433-0.904 1.609-1.204s0.495-0.546 0.71-0.546c0.356 0 3.912-2.25 5.053-3.199 0.266-0.22 0.595-0.401 0.732-0.401s1.18-0.6 2.317-1.333 2.968-1.862 4.068-2.508 2.36-1.394 2.8-1.663c0.44-0.268 1.509-0.87 2.375-1.338s1.824-1.1 2.128-1.404c0.305-0.305 0.699-0.554 0.877-0.554 0.299 0 4.489-2.377 5.44-3.087 0.231-0.172 2.025-1.123 3.985-2.113 1.961-0.99 3.81-2.025 4.109-2.3 1.244-1.144 1.727-0.609 1.447 1.6m8.239-1.396c0 0.167 1.485 0.635 3.3 1.041 1.815 0.405 3.48 0.877 3.7 1.049s1.93 0.635 3.8 1.029c1.87 0.395 3.49 0.838 3.6 0.986s1.55 0.594 3.2 0.991 3.09 0.841 3.2 0.986 1.46 0.593 3 0.996c1.54 0.402 2.98 0.855 3.2 1.005s1.57 0.613 3 1.028c1.43 0.416 3.049 0.984 3.598 1.263 0.548 0.28 1.943 0.72 3.1 0.979 1.156 0.259 2.102 0.597 2.102 0.751s1.44 0.691 3.2 1.192 3.2 1.03 3.2 1.176 1.17 0.6 2.6 1.009 2.6 0.866 2.6 1.016 1.08 0.599 2.4 0.999 2.4 0.848 2.4 0.996c0 0.149 1.08 0.615 2.4 1.037s2.4 0.873 2.4 1.002 0.992 0.572 2.205 0.985c2.84 0.965 2.619 1.43-1.037 2.175-1.632 0.333-3.148 0.715-3.368 0.849s-2.11 0.567-4.2 0.962-3.89 0.842-4 0.994-1.865 0.596-3.9 0.987c-2.035 0.392-3.7 0.87-3.7 1.063 0 0.192-0.315 0.355-0.7 0.36-1.189 0.017-14.103 3.506-14.7 3.971-0.22 0.171-1.733 0.607-3.363 0.968-1.629 0.362-3.159 0.82-3.4 1.018-0.24 0.199-1.607 0.664-3.037 1.033s-2.78 0.81-3 0.979-1.615 0.629-3.1 1.023-2.7 0.839-2.7 0.989c0 0.149-0.906 0.481-2.013 0.736-1.107 0.256-2.783 0.815-3.723 1.244-0.94 0.428-2.554 0.991-3.587 1.251-1.032 0.26-1.877 0.605-1.877 0.766s-1.17 0.61-2.6 0.997-2.6 0.835-2.6 0.996-1.125 0.621-2.5 1.024c-1.375 0.402-2.989 1.006-3.588 1.342-1.985 1.115-1.878 0.722 2.122-7.773 0.421-0.895 0.766-1.89 0.766-2.211 0-0.322 0.243-0.94 0.54-1.374 0.298-0.434 0.874-1.869 1.282-3.189 0.407-1.32 0.974-2.85 1.259-3.4 0.286-0.55 0.735-2.035 0.999-3.3s0.605-2.3 0.758-2.3c0.152 0 0.599-1.71 0.993-3.8s0.843-3.8 0.999-3.8 0.579-2.115 0.941-4.7 0.826-5.6 1.031-6.7c0.206-1.1 0.477-2.675 0.604-3.5 0.208-1.353 2.194-2.436 2.194-1.196m-118.6 27.934c0.88 0.147 1.78 0.4 2 0.565 0.22 0.164 2.29 0.697 4.6 1.185s4.391 1.044 4.624 1.235c0.233 0.192 1.808 0.653 3.5 1.024 1.692 0.372 3.076 0.809 3.076 0.972 0 0.162 1.305 0.609 2.9 0.993 1.595 0.383 3.08 0.836 3.3 1.005s1.478 0.62 2.795 1.001c1.318 0.382 2.668 0.849 3 1.038 0.333 0.189 1.108 0.522 1.723 0.741l1.117 0.397-1.502 1.303c-0.826 0.717-1.795 1.573-2.153 1.903-0.624 0.576-4.026 3.501-6.511 5.6-0.651 0.55-2.082 1.86-3.18 2.91-1.098 1.051-2.229 2.041-2.512 2.2-0.535 0.3-3.102 2.688-11.977 11.14-2.86 2.724-5.58 5.214-6.045 5.535l-0.845 0.584 0.202-10.178c0.197-9.944-0.45-24.962-1.095-25.391-0.165-0.11-0.425-1.611-0.578-3.336l-0.279-3.136 1.12 0.222c0.616 0.123 1.84 0.342 2.72 0.488m188.31 0.462c-0.147 0.385-0.419 0.88-0.603 1.1-0.185 0.22-1.274 1.817-2.42 3.548-3.905 5.896-5.53 8.252-6.285 9.116-0.33 0.377-0.912 1.102-1.293 1.611s-1.416 1.851-2.3 2.982c-0.884 1.132-1.607 2.159-1.607 2.282 0 0.124-0.405 0.66-0.9 1.191-0.495 0.532-1.301 1.485-1.791 2.118-0.491 0.634-1.26 1.602-1.711 2.152-0.832 1.016-3.007 3.826-4.291 5.546-0.389 0.52-1.109 1.42-1.599 2-0.84 0.992-8.085 10.116-10.708 13.484-0.66 0.848-1.695 2.112-2.3 2.809-0.605 0.696-1.1 1.402-1.1 1.568s-0.405 0.717-0.9 1.226-1.306 1.429-1.802 2.046c-0.497 0.617-1.352 1.642-1.9 2.279-0.549 0.638-0.998 1.272-0.998 1.411s-0.538 0.878-1.196 1.642c-0.657 0.764-1.602 1.886-2.1 2.494-0.497 0.607-1.388 1.637-1.979 2.288l-1.074 1.183-1.011-1.288c-0.556-0.708-1.242-1.57-1.525-1.914-0.283-0.345-0.855-1.224-1.27-1.955-0.416-0.731-1.003-1.62-1.305-1.974-0.303-0.355-2.081-2.535-3.951-4.845-3.887-4.802-12.708-13.851-17.284-17.734-1.708-1.449-3.484-3.001-3.947-3.45s-1.016-0.816-1.228-0.816c-0.377 0-2.316-2.012-2.06-2.137 0.072-0.035 0.85-0.435 1.73-0.889 0.88-0.455 2.365-1.069 3.3-1.364 0.935-0.296 1.7-0.661 1.7-0.811s1.08-0.599 2.4-0.999 2.4-0.85 2.4-1 0.765-0.497 1.7-0.771 2.06-0.725 2.5-1.002 1.79-0.828 3-1.225c1.21-0.396 2.29-0.836 2.4-0.978s1.01-0.503 2-0.804c0.99-0.3 2.16-0.759 2.6-1.02 0.44-0.26 1.88-0.806 3.2-1.212s2.49-0.849 2.6-0.984c0.11-0.136 1.37-0.637 2.8-1.114 7.332-2.444 8.679-2.926 9.6-3.434 0.55-0.304 1.946-0.774 3.101-1.044 1.156-0.271 2.19-0.636 2.299-0.812s1.143-0.538 2.299-0.805c1.155-0.267 2.461-0.703 2.901-0.97 0.44-0.266 1.97-0.805 3.4-1.198 1.43-0.392 2.78-0.849 3-1.015 0.22-0.167 1.705-0.617 3.3-1 1.595-0.384 2.9-0.834 2.9-1 0-0.167 1.125-0.532 2.5-0.811 1.375-0.28 3.04-0.746 3.7-1.036s2.656-0.892 4.435-1.338 3.849-1.077 4.6-1.403c1.845-0.801 2.4-0.781 2.073 0.076m9.212 1.556c0.704 0.361 1.37 0.768 1.48 0.906s0.963 0.607 1.895 1.044c0.933 0.437 1.698 0.902 1.7 1.033 3e-3 0.132 0.725 0.564 1.605 0.961s1.6 0.833 1.6 0.97c0 0.136 0.675 0.602 1.5 1.035s1.59 0.879 1.7 0.991c0.612 0.624 5.226 3.604 5.58 3.604 0.231 0 0.42 0.168 0.42 0.374s0.72 0.779 1.6 1.274 1.6 1.034 1.6 1.199c0 0.164 0.315 0.4 0.7 0.524s1.33 0.766 2.1 1.426c0.77 0.661 1.509 1.202 1.642 1.202 0.132 1e-3 0.694 0.406 1.248 0.901 1.586 1.418 2.57 2.191 3.784 2.971 0.619 0.399 1.454 1.131 1.855 1.627s0.888 0.902 1.082 0.902 0.777 0.405 1.296 0.9 2.086 1.89 3.482 3.1 6.143 5.786 10.548 10.169c8.776 8.731 8.682 8.545 4.369 8.603-1.152 0.015-2.862 0.203-3.8 0.416-0.938 0.214-5.486 0.671-10.106 1.018-4.62 0.346-8.76 0.788-9.2 0.983s-3.77 0.653-7.4 1.019c-3.63 0.365-6.78 0.801-7 0.968-0.22 0.168-3.1 0.624-6.4 1.015-3.3 0.392-6.09 0.833-6.2 0.981s-2.63 0.593-5.6 0.99c-2.97 0.396-5.58 0.86-5.8 1.03s-2.56 0.626-5.2 1.013-4.98 0.834-5.2 0.992-2.38 0.612-4.8 1.009-4.58 0.852-4.8 1.012-2.29 0.604-4.6 0.986-4.29 0.823-4.4 0.979c-0.11 0.157-2.449 0.7-5.197 1.208-2.749 0.508-5.305 1.116-5.682 1.351-1.461 0.913-1.106-0.156 0.536-1.611 2.66-2.357 12.612-12.406 15.743-15.897 1.54-1.717 3.34-3.704 4-4.414s1.74-1.989 2.4-2.842c0.66-0.852 1.695-2.12 2.3-2.817 0.605-0.696 1.1-1.425 1.1-1.618s0.36-0.575 0.8-0.85 0.8-0.676 0.8-0.892 0.785-1.429 1.744-2.697c0.96-1.267 2.045-2.889 2.411-3.604s0.801-1.3 0.966-1.3 0.655-0.808 1.089-1.796c0.435-0.988 0.917-1.798 1.071-1.8 0.155-2e-3 0.661-0.769 1.124-1.704 1.557-3.143 2.546-4.897 3.048-5.404 0.274-0.278 0.725-1.133 1.003-1.9 0.278-0.768 0.63-1.396 0.784-1.396s0.603-0.9 0.999-2c0.395-1.1 0.845-2 1-2 0.154 0 0.604-0.9 1-2 0.395-1.1 0.85-2 1.009-2s0.498-0.63 0.752-1.4c0.516-1.564 1.053-1.701 2.92-0.744m-146.24 15.793c1.366 0.633 2.656 1.151 2.867 1.151s0.443 0.144 0.517 0.319c0.186 0.445 6.92 3.681 7.661 3.681 0.333 0 0.665 0.161 0.739 0.358 0.073 0.197 2.743 1.695 5.933 3.329 6.76 3.463 7.605 3.965 7.586 4.509-7e-3 0.222-2.842 1.802-6.3 3.511-7.49 3.702-12.935 6.523-13.486 6.986-0.22 0.185-1 0.583-1.734 0.884-0.734 0.302-1.547 0.745-1.806 0.986-0.26 0.24-1.189 0.795-2.066 1.233s-1.684 0.908-1.794 1.043c-0.11 0.136-1.01 0.628-2 1.094s-2.07 1.03-2.4 1.254c-1.019 0.692-6.512 3.945-8.2 4.857-0.88 0.475-1.694 1.008-1.808 1.185-0.115 0.176-0.691 0.504-1.281 0.729-1.3 0.494-1.397 0.801 1.716-5.412 1.305-2.605 2.373-5.053 2.373-5.441s0.166-0.705 0.368-0.705 0.673-0.92 1.047-2.045 0.92-2.51 1.215-3.078 0.758-1.898 1.029-2.955 0.623-1.922 0.783-1.922c0.159 0 0.613-1.395 1.007-3.1 0.395-1.705 0.839-3.19 0.988-3.3 0.148-0.11 0.573-1.64 0.944-3.4s0.832-3.56 1.024-4 0.465-1.392 0.607-2.116c0.298-1.519 0.428-1.508 4.471 0.365m-14.012 1.31c-0.118 0.308-0.431 1.658-0.695 3-0.264 1.343-0.613 2.441-0.776 2.441s-0.516 1.125-0.786 2.5c-0.269 1.375-0.802 3.22-1.184 4.1s-0.943 2.41-1.246 3.4-0.649 1.89-0.771 2c-0.121 0.11-0.563 1.19-0.984 2.4-0.42 1.21-0.988 2.56-1.262 3s-0.722 1.565-0.996 2.5-0.625 1.7-0.78 1.7-0.601 0.855-0.991 1.9-0.91 2.17-1.155 2.5-1.255 2.22-2.245 4.2-1.908 3.69-2.041 3.8c-0.132 0.11-0.558 0.875-0.945 1.7-0.388 0.825-0.865 1.5-1.06 1.5s-0.358 0.225-0.363 0.5-0.325 0.911-0.711 1.413l-0.703 0.912-2.988-2.932c-4.388-4.304-10.175-8.693-11.463-8.693-0.222 0-0.776-0.315-1.231-0.7s-1.143-0.89-1.528-1.123c-0.626-0.378-0.508-0.61 1.115-2.2 2.441-2.39 9.637-8.891 12.857-11.614 0.626-0.53 1.624-1.413 2.216-1.963s1.948-1.72 3.013-2.6 2.498-2.088 3.184-2.685c0.687-0.597 2.058-1.717 3.048-2.49 1.921-1.499 3.296-2.619 5.186-4.225 0.648-0.55 1.657-1.36 2.243-1.8s1.629-1.29 2.318-1.888c1.38-1.199 2.055-1.415 1.724-0.553m54.529 20.591c0 0.193 0.495 0.599 1.1 0.904 1.173 0.59 4.566 2.785 4.9 3.169 0.181 0.208 3.95 2.798 5.498 3.777 0.719 0.455 1.406 0.996 3.06 2.41 0.638 0.545 1.268 0.99 1.4 0.991 0.133 0 0.872 0.54 1.642 1.199s1.508 1.199 1.641 1.199c0.132 1e-3 0.788 0.496 1.457 1.101 1.183 1.07 3.495 3.026 4.302 3.64 1.823 1.385 7.721 6.587 9.942 8.768l2.741 2.692-1.341 0.4c-0.738 0.22-1.522 0.512-1.742 0.648s-1.84 0.561-3.6 0.944c-1.76 0.382-3.38 0.83-3.6 0.995s-1.84 0.629-3.6 1.03-3.29 0.853-3.4 1.005c-0.11 0.151-1.685 0.594-3.5 0.985-1.815 0.39-3.3 0.837-3.3 0.993s-1.485 0.602-3.3 0.991-3.75 0.928-4.3 1.199-2.257 0.801-3.792 1.179c-1.536 0.377-2.976 0.829-3.2 1.004-0.225 0.175-1.758 0.64-3.408 1.033-1.65 0.394-3.09 0.84-3.2 0.991s-1.46 0.608-3 1.015c-1.54 0.406-2.89 0.855-3 0.998-0.11 0.142-1.457 0.571-2.992 0.952-1.536 0.381-2.976 0.842-3.2 1.023-0.225 0.181-1.578 0.65-3.008 1.043s-2.69 0.846-2.801 1.006c-0.111 0.161-1.371 0.595-2.8 0.965s-2.779 0.815-2.999 0.988c-0.22 0.174-1.48 0.624-2.8 1-1.32 0.375-2.94 0.921-3.6 1.213-0.66 0.291-2.19 0.839-3.4 1.218-1.21 0.378-2.38 0.825-2.6 0.992s-1.525 0.617-2.9 1c-1.375 0.382-2.5 0.831-2.5 0.996s-0.442 0.385-0.983 0.489c-1.395 0.266-0.816-0.611 2.043-3.095 2.944-2.558 19.247-18.894 22.14-22.186 1.21-1.377 2.626-2.978 3.147-3.558 0.521-0.581 1.601-1.859 2.4-2.84s1.723-2.1 2.053-2.488 1.05-1.252 1.6-1.921 1.45-1.745 2-2.391c1.13-1.326 1.816-2.199 4.974-6.322 1.224-1.598 2.226-2.992 2.226-3.097 0-0.174 1.939-2.872 3.448-4.797 0.345-0.44 0.819-1.205 1.054-1.7 0.234-0.495 0.55-0.9 0.701-0.9 0.152 0 0.6-0.72 0.997-1.6 0.657-1.457 1.4-2.12 1.4-1.25m-16.748 4.818c-0.288 0.178-0.733 0.69-0.988 1.137-0.582 1.018-4.23 6.287-5.151 7.437-1.834 2.291-3.513 4.704-3.513 5.047 0 0.211-0.36 0.576-0.8 0.811s-0.8 0.607-0.8 0.825c0 0.424-4.245 6.034-5.591 7.389-0.445 0.448-0.809 0.969-0.809 1.158s-0.374 0.723-0.831 1.186-1.373 1.562-2.036 2.442c-2.181 2.897-8.103 10.282-12.35 15.4-0.639 0.77-1.571 1.904-2.072 2.521-0.501 0.616-1.301 1.555-1.778 2.085s-1.107 1.301-1.4 1.712c-0.731 1.027-4.353 5.208-5.333 6.157-0.798 0.773-0.801 0.764-1.075-4.13-0.151-2.697-0.451-5.273-0.667-5.725-0.215-0.451-0.704-2.395-1.087-4.32s-0.825-3.5-0.984-3.5c-0.158 0-0.401-0.571-0.541-1.27-0.14-0.698-0.768-2.363-1.396-3.7-0.629-1.336-1.269-2.835-1.423-3.33-0.155-0.495-0.449-0.9-0.654-0.9s-0.368-0.225-0.362-0.5c0.012-0.509 3.964-3.1 4.729-3.1 0.231 0 0.564-0.23 0.74-0.511 0.176-0.282 1.085-0.849 2.02-1.261s1.7-0.89 1.7-1.062 0.356-0.425 0.792-0.564c0.75-0.237 4.949-2.615 5.808-3.289 0.22-0.172 1.345-0.749 2.5-1.281 1.155-0.533 2.101-1.073 2.101-1.2 1e-3 -0.128 0.811-0.565 1.8-0.972 0.99-0.406 1.799-0.882 1.799-1.056 0-0.175 0.418-0.422 0.929-0.55 0.511-0.129 1.546-0.65 2.3-1.158 0.754-0.509 2.001-1.182 2.771-1.496s1.58-0.722 1.8-0.907c0.486-0.408 2.575-1.549 5-2.73 0.99-0.482 1.89-1.003 2-1.156 0.11-0.154 1.055-0.603 2.1-0.998s1.9-0.873 1.9-1.063 0.225-0.353 0.5-0.362 2.3-0.893 4.5-1.965c3.351-1.633 5.71-2.399 3.852-1.251m-78.948 20.303c0.278 0.264 1.133 0.707 1.9 0.985 0.768 0.278 1.396 0.644 1.396 0.814s0.585 0.609 1.3 0.976c0.715 0.366 1.39 0.789 1.5 0.94s0.813 0.621 1.562 1.044c0.749 0.424 1.809 1.208 2.355 1.743l0.993 0.974-1.155 0.932c-0.635 0.514-1.44 1.201-1.789 1.527-0.348 0.327-0.841 0.594-1.096 0.594s-0.688 0.36-0.963 0.8-0.664 0.8-0.864 0.8c-0.201 0-1.102 0.549-2.004 1.22-7.647 5.694-9.299 6.952-14.55 11.08-3.941 3.097-5.797 4.194-4.399 2.6 0.337-0.385 0.929-1.321 1.314-2.08 0.385-0.76 0.935-1.617 1.223-1.905 0.289-0.288 0.751-1.152 1.029-1.919 0.278-0.768 0.63-1.396 0.784-1.396s0.603-0.9 0.999-2c0.395-1.1 0.851-2 1.013-2s0.418-0.405 0.57-0.9 0.791-2.011 1.42-3.369c0.63-1.357 1.365-3.292 1.634-4.3 0.27-1.007 0.613-1.831 0.764-1.831s0.592-1.298 0.981-2.885c0.972-3.969 1.9-4.524 4.083-2.444m20.096 16.854c0 0.178 0.341 0.69 0.757 1.137 0.417 0.447 1.072 1.426 1.456 2.176 0.384 0.749 0.813 1.452 0.954 1.562 0.14 0.11 0.605 1.01 1.033 2s0.901 1.89 1.052 2c0.15 0.111 0.674 1.461 1.165 3 0.49 1.54 1.026 2.98 1.19 3.2 0.476 0.635 1.333 6.059 1.067 6.752-0.133 0.346-1.059 0.834-2.058 1.086-0.999 0.251-1.816 0.589-1.816 0.75s-1.17 0.61-2.6 0.997-2.6 0.842-2.6 1.012c0 0.169-0.855 0.521-1.9 0.781-1.045 0.259-2.8 0.888-3.9 1.397-1.1 0.508-2.72 1.152-3.6 1.431s-1.955 0.752-2.389 1.051-1.047 0.543-1.361 0.543c-0.315 0-1.715 0.54-3.112 1.2s-2.77 1.2-3.05 1.2c-0.281 0-0.865 0.247-1.299 0.55-0.434 0.302-1.824 0.875-3.089 1.273s-2.3 0.857-2.3 1.022c0 0.164-0.99 0.586-2.2 0.938s-2.2 0.769-2.2 0.928-1.08 0.634-2.4 1.056-2.4 0.897-2.4 1.057c0 0.159-0.484 0.411-1.075 0.559s-2.346 0.863-3.9 1.588c-1.554 0.726-3.23 1.446-3.725 1.601s-0.9 0.45-0.9 0.655-0.165 0.373-0.367 0.373-1.237 0.396-2.3 0.879c-3.436 1.564-3.31 1.527-3.07 0.901 0.123-0.319 0.343-0.58 0.491-0.58 0.357 0 4.431-2.983 5.46-3.997 0.448-0.442 0.969-0.803 1.158-0.803s0.723-0.358 1.186-0.796c1.893-1.789 3.091-2.804 3.312-2.804 0.128 0 0.975-0.649 1.882-1.443 0.906-0.794 2.231-1.919 2.943-2.5 1.288-1.051 2.475-2.104 8.4-7.457 5.608-5.066 15.906-15.612 20.305-20.795 0.88-1.036 2.009-2.328 2.508-2.871 0.499-0.542 1.195-1.424 1.546-1.96 0.605-0.923 1.746-1.347 1.746-0.649m-14.4 4.413c0 1.001-18.73 19.661-24.4 24.309-0.77 0.631-1.606 1.329-1.858 1.55-0.252 0.222-1.042 0.853-1.756 1.403-1.446 1.113-3.225 2.589-4.583 3.8-0.493 0.44-1.172 0.98-1.509 1.2-3.228 2.109-4.694 3.183-4.694 3.44 0 0.169-0.343 0.415-0.763 0.548-0.419 0.133-1.544 0.864-2.5 1.623-0.955 0.76-1.953 1.383-2.217 1.385s-0.624 0.229-0.8 0.504-0.95 0.851-1.72 1.28-1.749 1.104-2.175 1.5c-2.822 2.62-1.11-0.02 2.646-4.08 2.78-3.006 5.301-5.849 6.729-7.59 0.55-0.671 1.45-1.744 2-2.384 0.55-0.641 1.63-2.019 2.399-3.064 2.175-2.952 7.158-7.362 8.318-7.362 0.244 0 0.587-0.229 0.763-0.509s1.535-1.305 3.02-2.276c1.485-0.972 2.7-1.891 2.7-2.042 0-0.152 0.544-0.501 1.209-0.777 0.666-0.275 1.341-0.702 1.5-0.948 0.16-0.247 0.921-0.799 1.691-1.228s1.749-1.104 2.175-1.5c0.427-0.396 0.909-0.72 1.072-0.72s0.534-0.225 0.824-0.5c0.291-0.275 1.699-1.253 3.129-2.173 1.43-0.919 2.882-1.909 3.226-2.2 0.345-0.29 1.245-0.873 2-1.297 0.756-0.423 1.464-0.889 1.574-1.034 0.179-0.237 1.65-1.153 1.9-1.184 0.055-7e-3 0.1 0.14 0.1 0.326" fill="#a91d22"/>
<path d="m70.732 34.636c-0.732 0.542-2.287 1.62-3.453 2.396-3.421 2.275-8.879 7.456-8.879 8.429 0 2.407 4.457 6.3 9.334 8.153 2.167 0.824 2.666 0.743 2.666-0.43 0-0.842 1.185-4.065 1.613-4.384 0.863-0.645 1.117-2.44 1.166-8.254 0.061-7.255-0.1-7.646-2.447-5.91m-13.234 12.264c-0.103 0.275-0.045 0.86 0.129 1.3 0.258 0.651 0.322 0.559 0.345-0.5 0.029-1.352-0.152-1.658-0.474-0.8m58.502 17.867c2.138 0.527 5.691 0.896 4.259 0.442-0.627-0.199-2.157-0.457-3.4-0.574-1.773-0.168-1.958-0.139-0.859 0.132m13.452 2.034c0.388 0.376 3.67 1.039 3.337 0.674-0.117-0.127-0.993-0.407-1.949-0.621-0.955-0.215-1.58-0.239-1.388-0.053m9.853 1.886c0.609 0.092 1.509 0.09 2-5e-3 0.492-0.095-5e-3 -0.171-1.105-0.168s-1.503 0.081-0.895 0.173m38.697 6.073c0.66 0.406 6.822 1.35 7.086 1.085 0.09-0.09-1.153-0.37-2.762-0.622-1.609-0.253-3.376-0.543-3.926-0.646-0.732-0.138-0.839-0.089-0.398 0.183m54.198 140.04c-0.504 0.217-0.578 0.344-0.2 0.344 0.33 0 0.96-0.155 1.4-0.344 0.504-0.217 0.578-0.344 0.2-0.344-0.33 0-0.96 0.155-1.4 0.344m-5.744 1.659c-0.739 0.213-1.269 0.461-1.177 0.553 0.202 0.202 3.121-0.575 3.121-0.831 0-0.235-0.318-0.19-1.944 0.278m-44.756 14.537c-1.265 0.55-1.772 1.404-0.833 1.404 0.256 0 0.334-0.133 0.172-0.295s0.393-0.598 1.233-0.97 1.348-0.682 1.128-0.69c-0.22-7e-3 -0.985 0.241-1.7 0.551m-6.025 2.077c-0.949 0.336-1.654 0.681-1.568 0.768 0.183 0.182 3.893-1.036 3.893-1.279 0-0.25-0.455-0.15-2.325 0.511m-43.475 16.713c-1.545 0.707-0.826 0.717 1 0.014 0.77-0.297 1.13-0.545 0.8-0.552-0.33-6e-3 -1.14 0.235-1.8 0.538m-4 1.628c-0.66 0.303-0.93 0.552-0.6 0.554s1.05-0.254 1.6-0.568c1.265-0.723 0.589-0.713-1 0.014m-5.6 2.372c-1.545 0.707-0.826 0.717 1 0.014 0.77-0.297 1.13-0.545 0.8-0.552-0.33-6e-3 -1.14 0.235-1.8 0.538m-4.8 2.005c-1.1 0.518-1.82 0.946-1.6 0.951s1.3-0.415 2.4-0.933 1.82-0.946 1.6-0.951-1.3 0.415-2.4 0.933m-44.3 20.438c-0.605 0.328-1.1 0.685-1.1 0.794s0.495-0.052 1.1-0.358c0.605-0.305 1.37-0.656 1.7-0.779 0.533-0.198 0.533-0.225 0-0.238-0.33-9e-3 -1.095 0.253-1.7 0.581m-4 2c-1.551 0.841-1.375 1.132 0.2 0.33 1.508-0.766 1.775-0.965 1.267-0.943-0.202 9e-3 -0.862 0.285-1.467 0.613m-4 2c-1.551 0.841-1.375 1.132 0.2 0.33 1.508-0.766 1.775-0.965 1.267-0.943-0.202 9e-3 -0.862 0.285-1.467 0.613m-15 8.463c-1.815 1.024-3.3 2.006-3.3 2.181 0 0.176 0.875-0.219 1.944-0.877 1.07-0.658 2.069-1.196 2.221-1.196 0.153 0 0.94-0.45 1.749-1 2.359-1.603 0.966-1.128-2.614 0.892m-4.908 2.64c-1.139 0.528-3.097 1.868-2.73 1.868 0.635 0 3.061-1.225 3.519-1.777 0.594-0.716 0.567-0.719-0.789-0.091m-4.93 2.715c-0.846 0.446-1.464 0.885-1.373 0.975 0.299 0.299 2.686-0.78 2.888-1.306 0.241-0.629 0.348-0.652-1.515 0.331m-4.162 2.399c-0.715 0.458-1.3 0.91-1.3 1.004 0 0.284 2.331-1.014 2.598-1.447 0.347-0.562 0.184-0.506-1.298 0.443m-4.211 2.725c-1.27 0.864-4.015 2.138-6.1 2.833-2.084 0.694-3.789 1.403-3.789 1.576 0 0.172-0.737 0.801-1.637 1.397-4.29 2.839-17.428 17.194-20.263 22.14-0.386 0.673-0.5 6.707-0.5 26.385v25.513l1.537 1.86c3.853 4.663 15.479 15.125 16.807 15.125 0.251 0 0.456 0.168 0.456 0.374s0.72 0.779 1.6 1.274 1.6 1.005 1.6 1.135c0 0.129 0.675 0.591 1.5 1.026s1.68 0.929 1.9 1.097c0.963 0.735 3.528 2.339 4.711 2.945 0.709 0.363 1.379 0.792 1.489 0.954 0.11 0.161 1.044 0.675 2.076 1.143 1.031 0.467 1.967 0.999 2.08 1.18 0.112 0.182 0.933 0.571 1.824 0.865s1.62 0.662 1.62 0.817 0.855 0.601 1.9 0.992 2.08 0.841 2.3 1.001c0.536 0.389 6.794 2.992 8.8 3.66 0.88 0.293 1.69 0.635 1.8 0.76s1.28 0.555 2.6 0.957 2.58 0.868 2.8 1.037 1.48 0.616 2.8 0.993c1.32 0.378 2.58 0.829 2.8 1.003 0.22 0.173 1.57 0.618 3 0.987s2.78 0.809 3 0.977c0.22 0.169 1.66 0.61 3.2 0.981 1.54 0.372 3.34 0.922 4 1.224s2.37 0.77 3.8 1.041c1.43 0.27 2.784 0.634 3.009 0.807 0.534 0.414 8.121 2.048 9.313 2.007 0.507-0.017 0.823 0.128 0.702 0.324-0.217 0.352 2.991 0.867 3.375 0.542 0.11-0.093-0.115-0.399-0.5-0.68-0.384-0.281-0.699-0.63-0.699-0.775s-0.487-1.025-1.082-1.956c-1.004-1.57-1.716-2.818-3.187-5.583-0.519-0.975-3.191-2.225-4.231-1.98-0.165 0.039-0.3-0.082-0.3-0.27 0-0.187-1.215-0.666-2.7-1.064-1.485-0.397-2.79-0.838-2.9-0.978-0.11-0.141-1.37-0.598-2.8-1.017s-2.69-0.869-2.8-1-1.37-0.581-2.8-1-2.69-0.886-2.8-1.037c-0.11-0.152-1.168-0.563-2.351-0.913-1.184-0.351-2.354-0.79-2.6-0.977-0.247-0.186-1.079-0.578-1.849-0.871-4.296-1.632-14.702-6.757-16.354-8.053-0.525-0.412-1.097-0.749-1.272-0.749-0.174 0-1.436-0.743-2.804-1.652-2.679-1.779-2.658-2.014 0.23-2.533 0.88-0.157 1.78-0.431 2-0.607s1.824-0.612 3.564-0.969c1.741-0.356 3.361-0.796 3.6-0.976 0.24-0.18 1.966-0.663 3.836-1.073 1.87-0.409 3.49-0.858 3.6-0.997s1.73-0.575 3.6-0.97c1.87-0.394 3.58-0.855 3.8-1.024s1.03-0.431 1.8-0.583c3.249-0.64 3.388-0.888 1.871-3.324-1.067-1.714-1.627-2.956-1.532-3.4 0.083-0.383-1.798 0.046-3.139 0.717-0.55 0.275-2.08 0.811-3.4 1.19-1.32 0.38-2.58 0.834-2.8 1.009s-1.39 0.593-2.6 0.929c-2.261 0.627-8.775 2.835-10.2 3.457-0.44 0.192-1.79 0.656-3 1.03-1.21 0.375-2.38 0.81-2.6 0.966-0.22 0.157-1.57 0.604-3 0.994s-2.691 0.851-2.801 1.026c-0.111 0.175-0.624-0.025-1.14-0.443l-0.939-0.76 1.017-1.735c0.559-0.955 1.297-1.968 1.64-2.253 0.343-0.284 0.623-0.725 0.623-0.979s0.315-0.759 0.7-1.123c0.385-0.363 1.33-1.595 2.1-2.738 0.77-1.142 1.805-2.448 2.3-2.9 0.495-0.453 0.9-1.052 0.9-1.331 0-0.28 0.283-0.667 0.629-0.86 0.347-0.194 0.842-0.728 1.1-1.187 0.523-0.928 10.512-13.664 11.222-14.309 0.815-0.741 1.506-2.188 0.943-1.977-0.272 0.103-0.839-0.399-1.261-1.114-1.489-2.524-2.233-4.077-2.246-4.686-9e-3 -0.472-0.146-0.429-0.586 0.185-0.316 0.44-0.729 0.985-0.919 1.21-0.191 0.226-0.687 0.946-1.104 1.6-0.643 1.01-3.879 5.485-4.918 6.8-0.178 0.226-0.657 0.946-1.064 1.6-0.407 0.655-0.933 1.37-1.168 1.59s-1.281 1.66-2.323 3.2c-1.043 1.54-2.431 3.52-3.085 4.4s-1.491 2.14-1.859 2.8-0.915 1.344-1.215 1.52-0.546 0.536-0.546 0.8c-1e-3 0.264-0.445 0.997-0.988 1.628s-1.217 1.666-1.497 2.3c-0.281 0.634-0.638 1.152-0.794 1.152s-0.582 0.63-0.948 1.4c-0.818 1.724-1.175 1.735-3.085 0.097-2.457-2.108-10.773-10.581-12.288-12.52-0.77-0.985-1.679-2.103-2.02-2.484-1.072-1.197-3.43-4.851-4.836-7.493-0.468-0.88-0.981-1.69-1.14-1.8-0.158-0.11-0.519-0.92-0.8-1.8-0.282-0.88-0.827-2.23-1.211-3-1.544-3.091-2.367-9.106-1.293-9.449 0.385-0.123 1.06-0.371 1.5-0.552s2.42-0.632 4.4-1.002 3.78-0.812 4-0.982c0.22-0.169 2.2-0.625 4.4-1.013 2.2-0.387 4.09-0.825 4.2-0.973s2-0.6 4.2-1.005 4.09-0.848 4.2-0.985c0.11-0.136 2-0.632 4.2-1.102 4.116-0.88 7.207-1.619 8.12-1.943 0.52-0.184-0.843-3.035-2.236-4.679-0.32-0.377-0.485-0.937-0.367-1.244 0.148-0.386-0.053-0.53-0.651-0.466-0.476 0.051-0.866 0.132-0.866 0.181 0 0.048-0.629 0.176-1.397 0.284s-1.488 0.336-1.6 0.506c-0.112 0.171-1.643 0.625-3.403 1.011-1.76 0.385-3.38 0.836-3.6 1.002s-1.75 0.621-3.4 1.011-3.18 0.842-3.4 1.003c-0.22 0.162-1.84 0.607-3.6 0.989s-3.38 0.834-3.6 1.005c-0.22 0.17-1.742 0.611-3.383 0.98-1.64 0.368-4.045 1.028-5.343 1.465-1.298 0.438-2.495 0.742-2.659 0.677-0.719-0.287 2.561-11.131 3.606-11.919 0.146-0.11 0.646-1.01 1.112-2s1.073-2.16 1.35-2.6c1.694-2.699 3.346-5.228 3.526-5.4 0.115-0.11 0.532-0.707 0.927-1.327 0.395-0.619 0.983-1.429 1.308-1.8 0.325-0.37 1.783-2.113 3.239-3.873 1.457-1.759 3.429-3.958 4.383-4.885 2.016-1.959 2.065-2.193 0.749-3.612l-0.985-1.063 3.101-1.22c2.711-1.067 7.669-3.938 7.669-4.441 0-0.298-0.118-0.233-2.511 1.392" fill="#909ca9"/>
<path d="m148.6 0.847c-1.54 0.429-3.34 1.027-4 1.33s-2.01 0.765-3 1.026-1.98 0.617-2.2 0.791-1.48 0.647-2.8 1.05c-1.32 0.404-2.49 0.836-2.6 0.96-0.11 0.125-1.28 0.579-2.6 1.01-1.32 0.43-2.532 0.963-2.694 1.184s-0.297 0.245-0.3 0.053-0.231-0.168-0.506 0.054c-0.275 0.221-1.13 0.537-1.9 0.701-0.77 0.165-2.3 0.707-3.4 1.206s-2.765 1.134-3.7 1.411-1.7 0.623-1.7 0.768-0.911 0.513-2.025 0.816-2.117 0.699-2.228 0.879-0.37 0.223-0.575 0.097c-0.204-0.127-0.372-0.052-0.372 0.165s-0.99 0.683-2.2 1.035-2.2 0.775-2.2 0.941-0.855 0.546-1.9 0.845c-1.045 0.3-2.17 0.763-2.5 1.03s-1.59 0.826-2.8 1.242c-1.21 0.417-2.438 0.983-2.729 1.258-0.29 0.276-0.684 0.501-0.874 0.501-0.189 0-0.852 0.209-1.471 0.465-0.619 0.255-1.261 0.435-1.426 0.4-0.165-0.036-0.3 0.082-0.3 0.261 0 0.18-1.035 0.751-2.3 1.27s-2.39 1.047-2.5 1.174c-0.285 0.328-6.023 3.085-7.1 3.411-0.495 0.15-0.9 0.416-0.9 0.592 0 0.175-0.81 0.628-1.8 1.006s-1.8 0.838-1.8 1.023-0.639 0.547-1.42 0.805c-0.781 0.257-1.635 0.811-1.896 1.231-0.262 0.419-0.748 0.765-1.08 0.768-0.471 5e-3 -0.49 0.079-0.084 0.336 0.4 0.254 0.492 1.784 0.4 6.595-0.066 3.445-7e-3 6.264 0.131 6.264 0.449-1e-3 1.149-1.067 0.879-1.338-0.145-0.145-0.013-0.263 0.293-0.263s1.101-0.59 1.767-1.31c1.185-1.283 2.799-2.691 5.377-4.69 0.709-0.55 1.623-1.301 2.031-1.67 1.891-1.708 2.185-1.655 4.052 0.728 0.963 1.228 2.74 3.456 3.95 4.951s2.65 3.306 3.2 4.025 1.184 1.5 1.409 1.736c0.225 0.237 1.564 1.87 2.976 3.63 1.411 1.76 2.807 3.47 3.102 3.8s1.533 1.885 2.752 3.456c2.547 3.281 2.535 3.276 10.715 4.557 2.835 0.443 5.293 0.893 5.464 0.998 0.17 0.105 0.603 0.079 0.961-0.058 0.694-0.267 0.805-0.151-13.033-13.553-7.484-7.248-15.705-15.035-17.046-16.148-0.953-0.789-1.247-1.516-0.4-0.987 0.567 0.354 0.418 0.31 3.9 1.171 1.43 0.353 2.87 0.742 3.2 0.864 1.138 0.419 1.414 0.486 5.4 1.304 2.2 0.451 4.293 0.983 4.652 1.181 0.358 0.199 2.608 0.676 5 1.06 2.391 0.385 4.438 0.819 4.548 0.966s2.36 0.587 5 0.978 4.98 0.818 5.2 0.95c0.509 0.303 0.621 0.322 6.6 1.089 2.75 0.353 5.36 0.801 5.8 0.995 0.762 0.335 5.358 0.928 11 1.418 1.43 0.125 2.87 0.328 3.2 0.453 0.958 0.362 1.666 0.463 3.886 0.555 2.49 0.104 3.423 0.537 1.952 0.906-0.571 0.143-1.038 0.423-1.038 0.622 0 0.198-0.675 0.581-1.5 0.85s-1.916 0.813-2.425 1.208c-0.509 0.396-1.544 0.924-2.3 1.173-0.756 0.25-1.375 0.62-1.375 0.823s-0.165 0.369-0.367 0.369c-0.487 0-3.384 1.388-5.685 2.724-2.702 1.569-9.381 5.366-10.829 6.157-0.687 0.375-1.355 0.825-1.484 1-0.129 0.176-0.955 0.679-1.835 1.118-1.584 0.791-2.833 1.743-2.548 1.942 1.398 0.978 13.14 2.37 13.153 1.559 2e-3 -0.165 0.767-0.66 1.698-1.1 2.534-1.196 10.695-6.746 11.03-7.5 0.074-0.165 0.344-0.305 0.6-0.31 0.257-6e-3 2.432-1.609 4.833-3.563 4.878-3.969 4.954-3.977 6.094-0.634 0.338 0.994 0.743 1.807 0.899 1.807 0.155 0 0.607 0.9 1.002 2 0.396 1.1 0.892 2 1.103 2s0.272 0.18 0.136 0.4-0.057 0.4 0.176 0.4 0.424 0.198 0.424 0.44c0 0.48 1.223 3.238 1.579 3.56 0.122 0.11 0.535 0.83 0.919 1.6 0.383 0.77 0.92 1.76 1.192 2.2s1.027 1.7 1.678 2.8 1.214 2.05 1.251 2.11c0.037 0.061 1.668 0.381 3.624 0.713 1.957 0.332 4.412 0.75 5.457 0.93s1.9 0.196 1.9 0.036c0-0.641-1.188-3.081-1.711-3.515-0.306-0.254-0.794-1.179-1.083-2.055s-0.637-1.523-0.774-1.439c-0.137 0.085-0.588-0.686-1.001-1.713-0.414-1.027-0.959-2.137-1.213-2.467-0.253-0.33-0.811-1.363-1.239-2.295-0.429-0.933-0.896-1.698-1.039-1.7-0.143-3e-3 -0.583-0.905-0.979-2.005-0.395-1.1-0.836-2-0.98-2-0.143 0-0.594-0.81-1.003-1.8-0.408-0.99-0.857-1.8-0.997-1.8s-0.464-0.699-0.72-1.553c-0.255-0.853-0.734-1.775-1.063-2.049-0.329-0.273-0.598-0.707-0.598-0.965 0-0.257-1.066-2.571-2.37-5.141-1.303-2.569-2.495-5.081-2.647-5.582-0.153-0.5-0.489-1.18-0.748-1.51-0.258-0.33-0.709-1.32-1.001-2.2-0.293-0.88-0.743-1.87-1.001-2.2s-0.806-1.59-1.219-2.8c-0.412-1.21-0.974-2.56-1.249-3s-0.713-1.61-0.974-2.6-0.591-1.89-0.734-2-0.613-1.28-1.043-2.6c-0.431-1.32-0.901-2.49-1.045-2.6s-0.575-1.46-0.958-3-0.834-2.89-1.002-3-0.577-1.37-0.909-2.8c-0.87-3.75-0.879-3.781-1.118-4-0.12-0.11-0.39-0.92-0.6-1.8-0.471-1.974-2.227-2.22-6.782-0.953m3.835 3.653c0.019 0.055 0.286 1.99 0.594 4.3 0.307 2.31 0.646 4.65 0.752 5.2 0.398 2.063 1.86 9.416 1.949 9.8 0.051 0.22 0.201 0.58 0.334 0.8 0.132 0.22 0.543 1.745 0.913 3.389s0.82 3.174 0.999 3.4c0.18 0.226 0.652 1.806 1.049 3.511s0.846 3.1 0.998 3.1 0.377 0.495 0.499 1.1 0.345 1.418 0.496 1.807c0.244 0.633 0.152 0.661-0.872 0.261-0.63-0.245-2.856-0.774-4.946-1.175s-4.25-0.83-4.8-0.955c-2.296-0.521-5.214-1.018-8.6-1.465-1.98-0.262-3.69-0.611-3.8-0.776s-2.81-0.618-6-1.008c-3.19-0.389-5.89-0.834-6-0.987-0.11-0.154-2.945-0.614-6.3-1.023-3.355-0.408-6.1-0.86-6.1-1.003 0-0.144-3.06-0.593-6.8-0.999s-6.8-0.882-6.8-1.058c0-0.175-0.765-0.322-1.7-0.325-2.165-8e-3 -3.212-0.579-1.738-0.949 0.571-0.143 1.038-0.41 1.038-0.592 0-0.183 0.81-0.666 1.8-1.075 0.99-0.408 1.8-0.861 1.8-1.006s0.855-0.586 1.9-0.981 1.99-0.846 2.1-1.004c0.277-0.397 11.818-5.987 12.36-5.987 0.242 0 0.44-0.18 0.44-0.4s0.239-0.4 0.532-0.4 1.418-0.449 2.5-0.998 2.09-0.999 2.24-1 1.439-0.542 2.865-1.202 2.687-1.2 2.802-1.2 0.626-0.158 1.135-0.352 1.067-0.367 1.24-0.386c0.173-0.018 0.591-0.31 0.929-0.648s0.867-0.614 1.176-0.614c0.308 0 1.74-0.54 3.181-1.2s2.873-1.2 3.181-1.2c0.309 0 0.8-0.228 1.09-0.506 0.291-0.279 1.825-0.926 3.408-1.439 1.584-0.512 2.934-1.053 3-1.202 0.206-0.46 5.031-1.914 5.156-1.553m80.765 210.29c-0.55 0.181-2.62 0.819-4.6 1.419-4.543 1.376-4.31 1.07-3.829 5.028 0.225 1.848 0.45 4.036 0.5 4.861 0.051 0.825 0.2 1.5 0.331 1.5 0.28 0 1.135 11.63 1.482 20.159l0.242 5.958-1.163-0.808c-1.846-1.283-3.813-2.414-5.863-3.371-1.045-0.489-1.9-1.036-1.9-1.216 0-0.181-0.72-0.617-1.6-0.969s-1.6-0.773-1.6-0.936c0-0.162-0.72-0.62-1.6-1.017s-1.6-0.841-1.6-0.987-0.639-0.57-1.42-0.942c-0.782-0.373-1.637-0.86-1.9-1.082-0.925-0.78-5.51-3.589-5.86-3.589-0.194 0-0.413-0.135-0.487-0.3-0.176-0.396-4.737-3.487-5.633-3.817-0.385-0.142-0.7-0.444-0.7-0.67 0-0.227-0.201-0.413-0.446-0.413-0.246 0-1.305-0.63-2.354-1.4s-2.068-1.4-2.265-1.4c-0.196 0-0.68-0.378-1.076-0.839-0.854-0.998-2.059-0.863-6.285 0.704-3.093 1.146-3.258 1.788-0.722 2.802 0.851 0.341 1.548 0.747 1.548 0.902 0 0.156 0.639 0.588 1.42 0.96 0.782 0.373 1.637 0.859 1.9 1.08 0.816 0.684 3.437 2.348 4.791 3.042 0.709 0.363 1.379 0.772 1.489 0.909 0.11 0.136 0.917 0.606 1.794 1.044s1.834 1.021 2.128 1.296c0.295 0.275 0.719 0.5 0.945 0.5 0.225 0 0.892 0.344 1.483 0.764 1.108 0.789 3.855 2.349 6.65 3.775 0.88 0.449 1.69 0.926 1.8 1.06 0.11 0.133 0.92 0.575 1.8 0.981s1.69 0.859 1.8 1.007c0.11 0.147 1.009 0.587 1.999 0.977 0.989 0.39 1.889 0.837 2 0.995 0.277 0.395 7.019 3.641 7.562 3.641 0.241 0 0.439 0.177 0.439 0.392 0 0.216 0.468 0.51 1.04 0.654l1.041 0.261-1.341 1.148c-0.737 0.632-1.655 1.25-2.04 1.374s-0.7 0.372-0.7 0.551c0 0.18-0.315 0.441-0.7 0.58-1.084 0.391-2.747 1.428-2.303 1.434 0.218 3e-3 -0.502 0.481-1.6 1.062-1.098 0.582-2.087 1.176-2.197 1.321-0.11 0.146-0.867 0.575-1.683 0.955-0.816 0.379-1.588 0.86-1.717 1.068s-0.901 0.693-1.717 1.076c-0.816 0.384-2.088 1.106-2.828 1.603-0.739 0.498-2.359 1.396-3.6 1.995-1.24 0.598-2.345 1.197-2.455 1.33s-0.83 0.495-1.6 0.804c-0.77 0.31-2.017 0.979-2.771 1.488-0.754 0.508-1.789 1.029-2.3 1.158-0.511 0.128-0.929 0.393-0.929 0.589 0 0.197-0.252 0.357-0.559 0.357-0.308 0-1.531 0.511-2.719 1.136s-3.006 1.459-4.041 1.854c-1.034 0.395-1.881 0.838-1.881 0.984s-0.675 0.493-1.5 0.771c-0.825 0.279-2.4 0.931-3.5 1.449-7.947 3.747-8.263 3.832-7.932 2.131 0.142-0.729 0.38-1.415 0.528-1.525 0.149-0.11 0.584-1.82 0.967-3.8s0.935-4.32 1.226-5.2 0.736-3.04 0.988-4.8 0.623-3.56 0.824-4c0.402-0.878 1.599-9.873 1.599-12.013 0-0.737 0.185-1.454 0.411-1.594 0.225-0.139 0.374-0.465 0.329-0.723-0.045-0.259 0.037-2.36 0.182-4.67 0.682-10.854 0.74-15.2 0.203-15.194-0.289 3e-3 -2.415 0.691-4.725 1.53l-4.2 1.523-0.293 7.571c-0.311 8.058-1.387 19.705-1.882 20.37-0.164 0.22-0.625 2.38-1.026 4.8s-0.85 4.49-0.999 4.6-0.599 1.82-1 3.8-0.864 3.78-1.029 4-0.602 1.568-0.971 2.996c-0.925 3.575-0.854 3.549-3.189 1.149-1.147-1.18-2.609-2.612-3.248-3.183-2.833-2.528-8.23-8.612-10.966-12.362-0.883-1.21-1.961-2.65-2.396-3.2s-0.793-1.216-0.796-1.48-0.232-0.624-0.509-0.8-0.862-1.04-1.3-1.92-0.915-1.691-1.061-1.802c-0.231-0.176-2.143-4.182-4.257-8.918-0.796-1.784-1.362-1.785-5.428-0.01-3.223 1.407-3.266 1.456-2.567 3.007 0.329 0.727 0.839 1.953 1.134 2.723 0.296 0.77 0.654 1.49 0.797 1.6s0.582 1.055 0.977 2.1 0.834 1.9 0.976 1.9c0.229 0 0.925 1.528 1.185 2.6 0.053 0.22 0.409 0.76 0.79 1.2 0.382 0.44 0.956 1.34 1.276 2 0.319 0.66 0.689 1.29 0.822 1.4 0.132 0.11 0.714 0.957 1.294 1.882 0.871 1.39 4.848 6.536 6.894 8.918 1.155 1.345 10.559 10.691 11.964 11.89l1.511 1.29-0.975 0.371c-0.536 0.204-1.73 0.597-2.652 0.873-0.922 0.277-1.676 0.684-1.676 0.906s-0.118 0.285-0.263 0.14-0.46-0.104-0.7 0.09c-0.24 0.195-1.562 0.667-2.937 1.05-1.375 0.382-2.5 0.818-2.5 0.967 0 0.15-0.945 0.506-2.1 0.792-1.155 0.285-2.476 0.755-2.936 1.043-0.46 0.287-1.63 0.735-2.6 0.995-0.97 0.259-2.494 0.802-3.387 1.207-0.892 0.405-2.512 0.956-3.6 1.226-1.087 0.269-2.067 0.617-2.177 0.772s-1.28 0.593-2.6 0.973-2.58 0.838-2.8 1.017c-0.22 0.18-1.57 0.629-2.999 0.999s-2.689 0.801-2.8 0.957c-0.111 0.157-1.731 0.698-3.601 1.202-1.87 0.505-3.58 1.056-3.8 1.226s-1.39 0.536-2.6 0.814-2.425 0.683-2.7 0.901-0.5 0.263-0.5 0.099-0.225-0.121-0.5 0.096c-0.401 0.316-2.604 1.018-2.993 0.954-0.051-8e-3 -0.726 0.249-1.5 0.573-0.774 0.323-1.41 0.45-1.413 0.282s-0.138-0.104-0.3 0.141-0.698 0.572-1.191 0.726c-1.098 0.343-0.915-0.321 0.778-2.83 0.615-0.912 1.119-1.857 1.119-2.1s0.18-0.442 0.4-0.442 0.4-0.149 0.4-0.331c0-0.279 2.751-5.398 5.304-9.869 0.377-0.66 1.073-2.01 1.547-3 0.475-0.99 1.032-1.91 1.24-2.045 0.208-0.134 0.345-0.314 0.306-0.4-0.138-0.304 1.295-3.555 1.567-3.555 0.153 0 0.602-0.9 0.997-2 0.396-1.1 0.881-2 1.079-2s0.36-0.245 0.36-0.544 0.522-1.604 1.159-2.9c0.638-1.296 1.611-3.346 2.163-4.556s1.65-3.549 2.441-5.199c0.79-1.649 1.437-3.314 1.437-3.7 0-0.385 0.165-0.701 0.367-0.701s0.77-1.215 1.262-2.7 1.121-3.06 1.398-3.5 0.736-1.61 1.019-2.6 0.639-1.89 0.791-2 0.561-1.163 0.91-2.341l0.634-2.141-1.043 0.262c-0.911 0.229-7.107 2.794-10.228 4.236-0.709 0.327-1.321 1.111-1.754 2.243-0.366 0.958-0.785 1.741-0.931 1.741-0.147 0-0.591 0.9-0.986 2-0.396 1.1-0.881 2-1.079 2s-0.328 0.135-0.288 0.3c0.087 0.363-1.257 3.262-1.901 4.1-0.254 0.33-0.781 1.455-1.171 2.5s-0.849 1.9-1.021 1.9-0.622 0.81-1 1.8-0.807 1.8-0.953 1.8-0.503 0.675-0.793 1.5c-0.291 0.825-0.838 1.86-1.216 2.3s-0.935 1.43-1.237 2.2c-0.303 0.77-0.872 1.749-1.265 2.175-0.393 0.427-0.715 0.999-0.715 1.272s-0.232 0.734-0.515 1.024c-0.284 0.291-0.848 1.238-1.255 2.104-0.406 0.866-0.908 1.766-1.115 2-0.568 0.643-2.215 3.447-2.952 5.025-0.359 0.77-0.79 1.49-0.958 1.6s-0.648 0.83-1.068 1.6-1.252 2.161-1.85 3.092-1.087 1.793-1.087 1.917-0.188 0.442-0.417 0.708c-0.743 0.86-3.178 4.838-3.411 5.571-0.124 0.392-0.398 0.712-0.609 0.712-0.21 0-0.559 0.465-0.775 1.033-0.562 1.476-1.196 1.043-2.13-1.454-0.449-1.199-0.939-2.269-1.09-2.379-0.152-0.11-0.594-1.37-0.984-2.8s-0.846-2.78-1.012-3c-0.462-0.609-1.572-6.857-1.572-8.844 0-0.966-0.18-1.756-0.4-1.756-0.528 0-0.528-6.674 0-7 0.22-0.136 0.41-1.182 0.421-2.324 0.012-1.142 0.26-3.516 0.552-5.276 0.293-1.76 0.456-3.282 0.365-3.381-0.249-0.271-11.301 5.281-11.961 6.008-1.791 1.974-1.645 24.765 0.167 25.951 0.187 0.122 0.569 1.212 0.85 2.422 0.28 1.21 0.749 2.65 1.042 3.2 0.292 0.55 1.168 2.44 1.946 4.2s1.667 3.678 1.976 4.263c0.56 1.058 0.555 1.064-1.293 1.529-1.02 0.257-2.037 0.609-2.26 0.783-0.481 0.375-5.899 1.715-6.244 1.544-0.131-0.066-0.536 0.128-0.9 0.43-0.363 0.302-0.664 0.392-0.667 0.2s-0.138-0.15-0.3 0.092c-0.162 0.243-1.464 0.712-2.894 1.042-3.514 0.812-3.769 0.884-4 1.131-0.2 0.213-5.36 1.583-6.3 1.672-0.275 0.026-0.5 0.197-0.5 0.381 0 0.183-0.45 0.333-1 0.333s-1 0.191-1 0.424-0.178 0.313-0.395 0.179c-0.486-0.3-0.076 0.952 0.588 1.797 0.901 1.147 2.578 4.296 2.388 4.486-0.105 0.105 1.026-0.056 2.514-0.358 2.797-0.567 3.096-0.644 4.105-1.047 0.33-0.132 2.22-0.524 4.2-0.872 1.98-0.347 3.96-0.794 4.4-0.992 0.858-0.386 3.742-1.022 6.498-1.433 0.934-0.14 1.799-0.418 1.924-0.619 0.124-0.201 0.405-0.365 0.624-0.365 0.454 0-0.811 2.447-1.494 2.891-0.246 0.159-0.673 0.834-0.948 1.5-0.276 0.665-0.63 1.209-0.788 1.209s-1.063 1.215-2.012 2.7-1.852 2.79-2.009 2.9c-0.156 0.11-0.583 0.785-0.949 1.5-0.367 0.715-0.81 1.3-0.985 1.3-0.176 0-0.715 0.792-1.198 1.76-0.484 0.969-1.146 1.863-1.471 1.988-0.326 0.125-0.592 0.475-0.592 0.777 0 0.303-0.36 0.877-0.8 1.275-1.303 1.179-1.063 2.27 1.433 6.501 0.498 0.844 0.977 1.222 1.367 1.076 0.481-0.18 0.501-0.124 0.1 0.279-0.275 0.277-0.5 0.662-0.5 0.855 0 0.192 0.658-0.519 1.461-1.58 0.804-1.062 1.929-2.416 2.5-3.008 0.572-0.593 1.399-1.563 1.839-2.156 0.44-0.594 1.165-1.459 1.61-1.923 0.446-0.464 1.614-1.834 2.595-3.044s1.876-2.29 1.99-2.4c0.113-0.11 0.819-1.01 1.569-2s1.793-2.25 2.317-2.8c2.03-2.13 3.715-4.218 3.717-4.604 7e-3 -1.421 1.54-1.3 3.151 0.247 0.908 0.873 1.651 1.696 1.651 1.829s0.512 0.731 1.139 1.33c0.626 0.598 1.391 1.429 1.7 1.846 0.308 0.417 2.091 2.107 3.96 3.755 1.87 1.648 3.691 3.312 4.047 3.697s0.781 0.7 0.943 0.7c0.163 0 0.65 0.45 1.082 1 0.433 0.55 1.025 1 1.315 1 0.291 0 0.629 0.261 0.751 0.58s0.907 0.941 1.743 1.382c0.836 0.442 1.34 0.813 1.12 0.826-0.438 0.026 1.18 1.047 2.3 1.452 0.385 0.139 0.7 0.404 0.7 0.588s0.63 0.633 1.4 0.999c0.77 0.365 1.4 0.783 1.4 0.928s0.675 0.617 1.5 1.05 1.59 0.899 1.7 1.035c0.11 0.137 0.813 0.563 1.562 0.947 0.75 0.384 1.56 0.865 1.8 1.069 0.241 0.204 0.798 0.629 1.238 0.945 0.711 0.51 0.722 0.575 0.1 0.586-0.385 7e-3 -0.7 0.153-0.7 0.324 0 0.308-4.188 1.689-5.12 1.689-0.264 0-0.48 0.142-0.48 0.316 0 0.175-1.26 0.662-2.8 1.084s-2.8 0.89-2.8 1.04-0.495 0.389-1.1 0.53c-2.132 0.499-5.502 1.583-5.7 1.834-0.11 0.14-1.361 0.575-2.78 0.968s-2.949 0.942-3.4 1.221-1.718 0.723-2.815 0.987c-1.097 0.263-2.177 0.624-2.4 0.801s-1.485 0.632-2.805 1.01c-1.32 0.379-2.49 0.811-2.6 0.96-0.24 0.325-4.872 1.833-5.3 1.725-0.165-0.042-0.3 0.104-0.3 0.324s-0.435 0.4-0.967 0.4c-1.563 0-0.991 2.804 1.016 4.98 0.193 0.209 0.351 0.71 0.351 1.114 0 0.593 0.144 0.657 0.747 0.334 0.411-0.22 0.857-0.291 0.991-0.157 0.133 0.134 0.472 0.057 0.752-0.17 0.281-0.228 1.95-0.727 3.71-1.109 1.76-0.383 3.377-0.799 3.593-0.925s0.666-0.268 1-0.316c1.072-0.154 6.573-1.662 7.607-2.086 0.55-0.226 2.35-0.717 4-1.092s3.18-0.816 3.4-0.979 1.84-0.626 3.6-1.029 3.29-0.849 3.4-0.992c0.11-0.142 1.583-0.564 3.274-0.938 1.69-0.373 3.13-0.803 3.2-0.956 0.14-0.311 5.384-1.695 6.326-1.67 0.472 0.012 0.451 0.102-0.1 0.423-0.385 0.224-0.7 0.637-0.7 0.917 0 0.279-0.535 1.216-1.189 2.08s-1.194 1.774-1.2 2.022-0.29 0.683-0.631 0.965c-0.341 0.283-0.962 1.266-1.38 2.184s-1.039 1.901-1.38 2.184c-0.341 0.282-0.62 0.74-0.62 1.016s-0.299 0.749-0.665 1.051-1.004 1.314-1.419 2.249c-0.414 0.935-0.925 1.7-1.135 1.7-0.209 0-0.381 0.174-0.381 0.387 0 0.362-2.747 4.89-3.549 5.851-0.201 0.24-0.674 1.033-1.051 1.762s-1.026 1.691-1.443 2.138c-0.416 0.447-0.757 1.027-0.757 1.288 0 0.262-0.273 0.703-0.607 0.98s-0.91 1.154-1.279 1.949-0.906 1.589-1.192 1.765c-0.287 0.176-0.522 0.542-0.522 0.813 0 0.484-2.163 4.083-3.406 5.667-0.345 0.44-0.731 1.25-0.859 1.8-0.127 0.55-0.487 1.206-0.8 1.457-0.485 0.389-0.438 0.685 0.32 2 0.489 0.849 1.18 2.083 1.535 2.743 0.356 0.66 1.133 1.961 1.728 2.892s1.082 1.786 1.082 1.9c0 0.663 1.912 1.937 3.151 2.1 0.797 0.105 1.672 0.373 1.944 0.594 0.272 0.222 0.79 0.29 1.151 0.152 0.36-0.139 0.858-0.094 1.105 0.098 0.462 0.36 4.538 1.046 8.941 1.506 1.371 0.143 2.411 0.391 2.312 0.551s2.56 0.616 5.908 1.013 6.178 0.845 6.288 0.996 3.35 0.608 7.2 1.016 7.09 0.859 7.2 1.003c0.644 0.84 20.796 1.994 34.697 1.987l14.497-8e-3 0.703-1.408c1.985-3.973 4.728-9.216 4.915-9.392 0.359-0.338 3.588-7.51 3.588-7.969 0-0.237 0.162-0.431 0.36-0.431s0.683-0.9 1.079-2c0.395-1.1 0.854-2 1.02-2 0.165 0 0.612-0.99 0.994-2.2 0.381-1.21 0.823-2.2 0.983-2.2 0.159 0 0.601-0.99 0.982-2.2 0.38-1.21 0.847-2.2 1.037-2.2s0.345-0.226 0.345-0.501c0-0.276 0.63-1.8 1.4-3.388 0.77-1.587 1.401-3.116 1.403-3.398 1e-3 -0.282 0.36-1.053 0.797-1.713s0.796-1.434 0.797-1.719c2e-3 -0.286 0.376-1.276 0.832-2.2 0.456-0.925 1.196-2.851 1.645-4.281s0.988-2.708 1.198-2.84c0.209-0.132 0.428-0.492 0.485-0.8 0.263-1.412 1.198-3.96 1.454-3.96 0.156 0 0.585-1.074 0.953-2.387 0.369-1.313 0.929-2.887 1.246-3.498s0.788-2.056 1.047-3.213c0.259-1.156 0.598-2.102 0.754-2.102s0.597-1.125 0.979-2.5c0.383-1.375 0.835-2.68 1.004-2.9 0.17-0.22 0.634-1.795 1.031-3.5s0.856-3.1 1.021-3.1 0.605-1.395 0.978-3.1c0.374-1.705 0.811-3.28 0.973-3.5 0.161-0.22 0.599-1.75 0.972-3.4s0.838-3.297 1.033-3.66 0.748-2.883 1.23-5.6c0.481-2.717 1.01-5.12 1.176-5.34s0.619-2.74 1.007-5.6c0.387-2.86 0.837-5.38 0.999-5.6s0.622-3.46 1.023-7.2 0.838-6.89 0.972-7c0.263-0.215 1.022-7.968 1.449-14.8 0.145-2.319 0.46-4.328 0.702-4.485 0.676-0.439 0.617-50.898-0.06-51.575-0.275-0.275-0.5-1.294-0.5-2.264 0-3.112-1.272-14.271-1.642-14.409-0.197-0.074-0.36-0.704-0.362-1.4-8e-3 -2.161-0.48-4.268-0.948-4.235-0.247 0.017-0.898 0.179-1.448 0.36m-5.555 57.807c-0.211 0.441-0.504 4.311-0.651 8.601-0.387 11.333-2.669 34.027-3.453 34.333-0.187 0.074-0.341 0.839-0.341 1.7 0 1.478-0.772 2.182-1.357 1.237-0.112-0.182-1.653-0.661-3.423-1.066-1.771-0.404-3.22-0.863-3.22-1.02s-1.17-0.62-2.6-1.029c-1.43-0.41-2.6-0.86-2.6-1 0-0.141-1.17-0.591-2.6-1-1.43-0.41-2.6-0.868-2.6-1.017 0-0.15-1.17-0.662-2.6-1.138s-2.6-1.031-2.6-1.233-0.198-0.367-0.439-0.367c-0.492 0-7.249-3.217-7.561-3.6-0.11-0.135-0.83-0.489-1.6-0.787-0.77-0.299-1.76-0.836-2.2-1.194-0.44-0.359-1.43-0.959-2.2-1.333-0.77-0.375-1.749-0.907-2.177-1.184-2.789-1.804-5.041-3.102-5.384-3.102-0.22 0-0.543-0.225-0.719-0.5s-0.855-0.801-1.509-1.168c-1.692-0.951-1.656-1.332 0.178-1.881 0.886-0.266 1.611-0.634 1.611-0.818s0.931-0.735 2.07-1.225c1.138-0.49 2.321-1.142 2.628-1.449 0.308-0.307 0.791-0.559 1.075-0.559 0.283 0 1.125-0.412 1.871-0.915s1.986-1.167 2.756-1.477c0.77-0.309 1.49-0.676 1.6-0.814s1.64-1.036 3.4-1.994 3.29-1.845 3.4-1.971 0.92-0.587 1.8-1.025 1.69-0.908 1.8-1.044c0.11-0.137 0.78-0.546 1.489-0.909 1.375-0.704 3.985-2.365 4.811-3.061 0.275-0.232 0.5-0.315 0.5-0.185 0 0.129 0.602-0.223 1.338-0.785 0.736-0.561 1.463-1.02 1.617-1.02 0.153 0 0.496-0.181 0.762-0.401 1.141-0.949 4.697-3.199 5.053-3.199 0.215 0 0.534-0.246 0.71-0.546s0.905-0.845 1.62-1.21c0.715-0.366 1.3-0.819 1.3-1.008 0-0.188 0.315-0.448 0.7-0.578 1.034-0.347 2.314-1.245 4.5-3.158 0.44-0.385 0.907-0.7 1.037-0.7s0.715-0.377 1.3-0.837l1.063-0.838 0.115 4.337c0.063 2.385-0.059 4.697-0.27 5.137m-188.04 22.477c-0.664 0.236-1.948 1.033-6.374 3.958-1.636 1.081-4.374 2.515-6.085 3.186l-3.111 1.22 0.985 1.063c0.542 0.584 0.985 1.257 0.985 1.496 0 0.238 0.698-0.249 1.552-1.083 2.965-2.897 7.821-6.768 9.848-7.85 1.181-0.63 3.391-2.27 3-2.226-0.11 0.013-0.47 0.119-0.8 0.236m129.28 6.624c0.294 0.275 1.251 0.851 2.128 1.28s1.864 0.992 2.194 1.251 1.275 0.709 2.1 1 1.5 0.634 1.5 0.761c0 0.128 0.9 0.581 2 1.008s2 0.895 2 1.039c0 0.145 1.125 0.679 2.5 1.187s2.59 1.049 2.7 1.202 1.096 0.581 2.19 0.951c1.095 0.37 2.175 0.817 2.4 0.994 0.226 0.177 1.4 0.642 2.61 1.033 1.21 0.392 2.29 0.829 2.4 0.972s1.37 0.603 2.8 1.022 2.69 0.889 2.801 1.044c0.111 0.156 1.363 0.584 2.782 0.952 1.42 0.368 3.04 0.894 3.599 1.17 0.56 0.276 2.098 0.732 3.418 1.013 1.32 0.28 2.58 0.652 2.8 0.825 0.22 0.172 1.975 0.639 3.9 1.037 3.978 0.822 4.113 0.961 1.9 1.959-0.88 0.397-1.6 0.845-1.6 0.996s-0.99 0.611-2.2 1.022-2.2 0.89-2.2 1.065c0 0.174-0.135 0.289-0.3 0.255-0.304-0.062-1.885 0.592-5.5 2.277-1.1 0.513-2.495 1.054-3.1 1.202-0.605 0.149-1.1 0.397-1.1 0.553s-0.99 0.596-2.2 0.977c-1.21 0.382-2.2 0.865-2.2 1.073 0 0.209-0.315 0.38-0.7 0.38s-1.841 0.54-3.236 1.2-2.727 1.2-2.961 1.2-1.568 0.54-2.965 1.2-2.797 1.2-3.11 1.2c-0.314 0-0.809 0.231-1.099 0.514-0.291 0.283-1.654 0.852-3.029 1.264s-2.5 0.87-2.5 1.019c0 0.148-0.225 0.286-0.5 0.307-0.638 0.048-3.564 1.123-5.686 2.09-0.903 0.411-2.176 0.875-2.828 1.03-0.652 0.156-1.456 0.495-1.786 0.754s-1.68 0.795-3 1.191-2.58 0.857-2.8 1.023-1.39 0.62-2.6 1.008-2.38 0.842-2.6 1.008-1.48 0.633-2.8 1.036c-1.32 0.404-2.49 0.856-2.6 1.005s-1.28 0.583-2.6 0.964-2.49 0.82-2.6 0.974c-0.247 0.348-2.877 1.27-3.07 1.077-0.194-0.195 1.42-3.786 1.811-4.027 0.175-0.108 0.558-0.926 0.852-1.817s0.668-1.62 0.831-1.62 0.619-0.9 1.015-2c0.395-1.1 0.863-2 1.04-2s0.293-0.135 0.259-0.3c-0.077-0.368 1.672-4.222 2.042-4.5 0.146-0.11 0.508-0.83 0.805-1.6 0.296-0.77 0.849-1.94 1.229-2.6 0.379-0.66 0.905-1.875 1.169-2.7 0.263-0.825 0.612-1.5 0.775-1.5s0.608-0.99 0.989-2.2c0.382-1.21 0.836-2.2 1.01-2.2s0.543-0.765 0.82-1.7 0.931-2.64 1.453-3.789 1.064-2.544 1.203-3.1c0.14-0.556 0.384-1.011 0.544-1.011 0.159 0 0.306-0.225 0.327-0.5 0.052-0.7 1.214-3.947 1.737-4.855 0.239-0.416 0.699-1.676 1.022-2.8 1.546-5.386 2.562-6.916 3.815-5.745m-14.295 5.432c-0.338 1.137-0.743 2.068-0.901 2.068s-0.504 0.694-0.769 1.543c-0.264 0.848-1.366 3.413-2.447 5.7-1.081 2.286-2.103 4.607-2.27 5.157s-0.424 1.09-0.57 1.2-1.954 3.62-4.018 7.8-3.855 7.69-3.98 7.8-1.11 1.91-2.188 4-2.078 3.89-2.223 4c-0.144 0.11-0.506 0.83-0.804 1.6-0.299 0.77-0.836 1.76-1.194 2.2-0.359 0.44-0.96 1.43-1.337 2.2-0.376 0.77-1.314 2.48-2.084 3.8-0.769 1.32-1.51 2.715-1.645 3.1-0.302 0.859-1.086 0.903-1.753 0.1-0.274-0.33-0.719-0.6-0.989-0.6s-1.236-0.54-2.148-1.2c-0.911-0.66-1.816-1.2-2.011-1.2s-0.576-0.267-0.847-0.594c-0.271-0.326-1.283-0.988-2.249-1.471-0.966-0.482-1.756-1.028-1.756-1.212 0-0.185-0.63-0.636-1.4-1.004-0.77-0.367-1.4-0.809-1.4-0.983 0-0.173-0.523-0.586-1.162-0.916-0.639-0.331-1.409-0.831-1.71-1.111s-1.353-1.126-2.338-1.88c-2.153-1.649-2.567-1.994-4.45-3.704-0.803-0.729-2.003-1.775-2.667-2.325-3.943-3.265-12.273-12.174-12.273-13.126 0-0.415 0.384-0.728 1-0.814 0.55-0.078 1.09-0.265 1.2-0.417s1.64-0.608 3.4-1.013 3.29-0.857 3.4-1.005c0.11-0.147 1.996-0.675 4.191-1.173s4.175-1.05 4.4-1.226c0.225-0.177 1.399-0.546 2.609-0.821s2.74-0.739 3.4-1.032 2.37-0.827 3.8-1.188 2.78-0.804 3-0.985 1.57-0.631 3-1 2.78-0.818 3-0.998c0.22-0.179 1.48-0.637 2.8-1.017s2.49-0.811 2.6-0.957c0.11-0.147 1.334-0.604 2.719-1.016 1.386-0.413 2.607-0.891 2.713-1.064 0.107-0.173 1.268-0.615 2.581-0.984 1.313-0.368 2.387-0.797 2.387-0.953 0-0.155 1.17-0.617 2.6-1.026s2.6-0.864 2.6-1.01c0-0.147 1.215-0.675 2.7-1.174s2.79-1.047 2.901-1.217c0.187-0.289 2.879-1.15 3.098-0.992 0.054 0.04-0.178 1.003-0.516 2.14m66.014 24.554c-0.39 2.043-0.845 3.894-1.011 4.114s-0.601 1.93-0.967 3.8c-0.365 1.87-0.771 3.67-0.902 4-0.388 0.978-0.462 1.248-1.315 4.8-0.449 1.87-0.964 3.67-1.145 4s-0.653 1.95-1.048 3.6-0.852 3.18-1.015 3.4-0.622 1.795-1.019 3.5-0.839 3.1-0.983 3.1c-0.143 0-0.59 1.44-0.992 3.2s-0.852 3.2-1 3.2-0.598 1.44-1 3.2-0.851 3.2-0.998 3.2c-0.148 0-0.604 1.35-1.015 3s-0.891 3-1.067 3-0.32 0.372-0.32 0.827c0 0.603-0.189 0.768-0.7 0.611-0.385-0.119-3.04-0.582-5.9-1.03s-5.56-0.978-6-1.178-2.42-0.677-4.4-1.061-3.78-0.83-4-0.992c-0.22-0.161-1.93-0.601-3.8-0.977s-3.597-0.844-3.837-1.039c-0.241-0.195-1.771-0.653-3.4-1.018-1.63-0.364-3.053-0.784-3.163-0.932s-1.37-0.581-2.8-0.963c-1.43-0.381-3.41-1.027-4.4-1.436s-2.475-0.868-3.3-1.022c-0.825-0.153-1.5-0.416-1.5-0.583 0-0.166-0.855-0.531-1.9-0.809s-2.305-0.756-2.8-1.061c-0.495-0.306-0.9-0.439-0.9-0.297s-0.225 0.08-0.5-0.138-1.49-0.717-2.7-1.108c-1.21-0.392-2.29-0.839-2.4-0.994s-1.145-0.593-2.3-0.973-2.1-0.837-2.1-1.016c0-0.178-0.491-0.447-1.09-0.598l-1.09-0.274 0.99-0.76c0.544-0.419 1.171-0.765 1.391-0.77 0.221-5e-3 1.68-0.629 3.242-1.387 1.561-0.757 3.316-1.497 3.898-1.643s1.059-0.426 1.059-0.622c0-0.197 0.195-0.357 0.433-0.357 0.416 0 3.479-1.287 8.567-3.6 1.32-0.6 2.805-1.217 3.3-1.372s0.9-0.45 0.9-0.655 0.289-0.373 0.643-0.373c0.353 0 1.748-0.52 3.1-1.155 1.351-0.635 3.132-1.391 3.957-1.68s1.5-0.68 1.5-0.869 0.18-0.232 0.4-0.096 0.4 0.057 0.4-0.176 0.169-0.424 0.376-0.424 1.928-0.72 3.824-1.6 3.617-1.6 3.824-1.6 0.376-0.136 0.376-0.303c0-0.166 0.765-0.54 1.7-0.831s1.97-0.76 2.3-1.043c0.33-0.282 1.455-0.833 2.5-1.223s1.9-0.827 1.9-0.972c0-0.144 0.99-0.599 2.2-1.01s2.2-0.863 2.2-1.004 0.9-0.58 2-0.975c1.1-0.396 2-0.881 2-1.079s0.225-0.36 0.5-0.36c0.558 0 15.585-7.53 15.9-7.968 0.11-0.152 0.8-0.52 1.534-0.817s1.544-0.74 1.8-0.985c0.569-0.543 2.408-1.382 2.618-1.195 0.084 0.075-0.166 1.808-0.555 3.851m-86.597 42.261c0 0.191 1.116 0.661 2.48 1.043 1.364 0.383 2.849 0.923 3.3 1.199 0.451 0.277 1.72 0.739 2.82 1.027 1.1 0.289 2.09 0.639 2.2 0.779s1.46 0.588 3 0.996c1.54 0.407 3.07 0.886 3.4 1.063 0.766 0.411 11.965 3.359 15.8 4.16 0.44 0.091 1.97 0.423 3.4 0.737s3.59 0.7 4.8 0.858 2.29 0.415 2.4 0.57c0.215 0.304 9.08 1.622 10.9 1.621 0.605 0 1.1 0.153 1.1 0.34s2.439 0.568 5.42 0.847c6.01 0.563 6.136 0.877 0.892 2.236-1.315 0.341-2.688 0.786-3.051 0.989-0.64 0.358-3.447 1.173-5.044 1.465-0.43 0.079-0.88 0.291-1 0.472-0.119 0.181-1.567 0.651-3.217 1.045-1.65 0.393-3.197 0.869-3.437 1.058-0.241 0.188-1.771 0.64-3.4 1.005-1.63 0.364-3.053 0.781-3.163 0.926s-1.91 0.731-4 1.302c-7.891 2.157-9.823 2.721-10.6 3.095-0.44 0.212-2.06 0.685-3.6 1.051-1.54 0.367-2.98 0.804-3.2 0.971s-1.745 0.607-3.389 0.976c-1.644 0.37-3.174 0.819-3.4 0.998-0.226 0.18-1.851 0.656-3.611 1.059s-3.29 0.843-3.4 0.979-1.55 0.569-3.2 0.961-3.18 0.85-3.4 1.016-1.733 0.597-3.363 0.958c-1.629 0.362-3.159 0.816-3.4 1.011-0.24 0.194-1.877 0.668-3.637 1.053-1.76 0.386-3.29 0.816-3.4 0.956s-2 0.677-4.2 1.194c-2.2 0.516-4.18 1.079-4.4 1.25-0.22 0.172-1.525 0.532-2.9 0.801-1.375 0.27-2.5 0.657-2.5 0.862 0 0.204-0.188 0.255-0.418 0.113-0.229-0.142-0.634-0.083-0.9 0.13-1.715 1.381-4.831 0.852-3.595-0.61 0.392-0.464 1.073-1.342 1.513-1.951 0.735-1.018 2.178-2.666 4.201-4.8 0.44-0.463 0.799-1.038 0.799-1.277 0-0.24 0.318-0.671 0.707-0.958 0.389-0.288 1.049-1.063 1.468-1.723s1.09-1.435 1.493-1.723c0.403-0.287 0.732-0.781 0.732-1.096 0-0.316 0.36-0.799 0.8-1.074s0.8-0.675 0.8-0.889 0.367-0.756 0.817-1.204c0.449-0.448 1.528-1.804 2.399-3.014 0.87-1.21 1.865-2.56 2.21-3 0.714-0.909 3.316-4.545 4.669-6.524 0.498-0.728 1.087-1.538 1.31-1.8 0.222-0.262 1.208-1.736 2.191-3.276 0.982-1.54 2.015-2.944 2.295-3.12s0.509-0.512 0.509-0.746c0-0.235 0.63-1.285 1.4-2.334s1.4-2.089 1.4-2.311 0.27-0.507 0.6-0.634c0.33-0.126 0.6-0.506 0.6-0.842 0-0.387 0.369-0.613 1-0.613 0.55 0 1 0.156 1 0.347m67.942 21.153c-0.216 0.825-0.636 2.04-0.933 2.7s-0.849 2.28-1.227 3.6c-0.379 1.32-0.81 2.49-0.96 2.6-0.149 0.11-0.595 1.415-0.991 2.9s-0.842 2.7-0.992 2.7-0.617 1.26-1.039 2.8-0.883 2.8-1.024 2.8c-0.142 0-0.574 1.17-0.961 2.6s-0.821 2.6-0.964 2.6c-0.144 0-0.605 1.215-1.025 2.7s-0.886 2.79-1.036 2.9-0.595 1.19-0.991 2.4c-0.395 1.21-1.051 2.827-1.459 3.594-0.407 0.767-0.74 1.645-0.74 1.952 0 0.613-6.679 0.32-7.961-0.349-0.352-0.184-3.519-0.635-7.039-1.002s-6.67-0.774-7-0.903c-0.748-0.293-0.413-0.243-8.8-1.336-3.85-0.502-7.09-1.032-7.2-1.178s-2.72-0.589-5.8-0.984c-3.08-0.394-5.69-0.836-5.8-0.981s-2.765-0.606-5.9-1.024-5.7-0.875-5.7-1.016c0-0.14-2.43-0.581-5.4-0.98s-5.4-0.858-5.4-1.02-1.125-0.439-2.5-0.615l-2.5-0.32 1.9-0.386c1.045-0.212 1.9-0.536 1.9-0.719s0.405-0.34 0.9-0.349c0.495-8e-3 2.43-0.354 4.3-0.768s5.2-1.132 7.4-1.595 4.36-1.002 4.8-1.199 2.51-0.67 4.6-1.052 3.89-0.811 4-0.954 2.18-0.67 4.599-1.172c2.42-0.501 4.58-1.053 4.8-1.226 0.221-0.173 1.841-0.629 3.601-1.013 1.76-0.385 3.29-0.818 3.4-0.964 0.11-0.145 1.55-0.605 3.2-1.021s3.27-0.893 3.6-1.059c0.33-0.167 1.59-0.593 2.8-0.948 1.21-0.354 2.56-0.808 3-1.008 1.312-0.598 4.584-1.605 5.214-1.605 0.322 0 0.586-0.144 0.586-0.321 0-0.176 1.17-0.655 2.6-1.064s2.6-0.866 2.6-1.015 1.17-0.606 2.6-1.015 2.6-0.875 2.6-1.036 0.99-0.58 2.2-0.932 2.2-0.844 2.2-1.095c0-0.25 0.104-0.351 0.231-0.224 0.245 0.244 3.703-1.196 10.369-4.318 1.708-0.8 1.78-0.75 1.342 0.92" fill="#ededee"/>
</g>
</svg>

